<?xml version="1.0" standalone="no"?>
<!DOCTYPE svg PUBLIC "-//W3C//DTD SVG 1.1//EN" "http://www.w3.org/Graphics/SVG/1.1/DTD/svg11.dtd" >
<svg xmlns="http://www.w3.org/2000/svg">
<metadata></metadata>
<defs>
<font id="bodoniflfregular" horiz-adv-x="1101" >
<font-face units-per-em="2048" ascent="1638" descent="-410" />
<missing-glyph horiz-adv-x="550" />
<glyph horiz-adv-x="2048" />
<glyph horiz-adv-x="2048" />
<glyph horiz-adv-x="682" />
<glyph horiz-adv-x="759" d="M164 1171q47 -57 109 -84.5t128 -27.5t124.5 27.5t99.5 84.5l-27 27q-39 -41 -91 -62.5t-110 -21.5q-57 0 -111.5 21.5t-95.5 62.5z" />
<glyph horiz-adv-x="731" d="M258 1116q0 -47 32 -78.5t79 -31.5t78.5 31.5t31.5 78.5t-31.5 79t-78.5 32t-79 -32t-32 -79z" />
<glyph horiz-adv-x="782" d="M254 1130q0 -63 45 -108t109 -45q63 0 108 45t45 108t-45 108.5t-108 45.5t-108.5 -45t-45.5 -109zM287 1130q0 51 34.5 86t86.5 35q51 0 85.5 -34.5t34.5 -86.5q0 -51 -34.5 -85.5t-85.5 -34.5t-86 34.5t-35 85.5z" />
<glyph unicode="&#xa;" horiz-adv-x="958" d="M272 1139l19 -2l155 434l-157 -76zM485 1139l17 -2l157 434l-159 -76z" />
<glyph horiz-adv-x="737" d="M285 -193q0 -61 36.5 -92.5t92.5 -31.5q47 0 87 18t40 29q0 12 -17 12q-8 0 -24 -4q-10 -2 -23.5 -4t-32.5 -2q-53 0 -69.5 25.5t-16.5 54.5q0 86 45 188h-38q-31 -43 -55.5 -90t-24.5 -103z" />
<glyph horiz-adv-x="876" d="M154 1253l270 -272h12l271 272l-13 7l-264 -138l-262 138z" />
<glyph unicode="&#xd;" horiz-adv-x="602" d="M74 0h483v33h-154v770h-329v-33h153v-737h-153v-33z" />
<glyph horiz-adv-x="1177" d="M-10 -143h88l1089 1618h-88z" />
<glyph horiz-adv-x="1056" d="M49 0h979v33h-154v770h-495v297q0 135 42 195.5t140 60.5q82 0 138.5 -20.5t56.5 -43.5q0 -6 -8 -8q-29 -10 -48.5 -36.5t-19.5 -65.5q0 -41 31.5 -72t83.5 -31q53 0 79.5 31t26.5 78q0 45 -28.5 82t-75.5 63.5t-108.5 41t-129.5 14.5q-176 0 -266 -107.5t-90 -308.5 v-170h-152v-33h152v-737h-154v-33zM379 33v737h319v-737h-319z" />
<glyph horiz-adv-x="1056" d="M49 0h979v33h-154v1345l-176 -51v-16q-18 25 -66 51.5t-126 26.5q-92 0 -151.5 -40t-93.5 -103.5t-46 -143.5t-12 -160v-139h-154v-33h154v-737h-154v-33zM379 33v737h153v33h-153v373q0 31 4 63.5t19.5 58t45 42t78.5 16.5q23 0 48.5 -8.5t25.5 -12.5t-8 -6 q-23 -6 -38 -29.5t-15 -50.5q0 -33 26.5 -57.5t61.5 -24.5q25 0 45 10.5t28 24.5l-2 -1169h-319z" />
<glyph horiz-adv-x="1226" d="M68 0h1048q37 0 48.5 21.5t11.5 44.5v307q0 49 -17 49q-14 0 -22 -43q-16 -78 -35 -141.5t-49.5 -109.5t-77.5 -70.5t-119 -24.5h-420v602l264 264v49l-264 -264v662h191v32h-559v-32h170v-809l-150 -152v-49l150 151v-454h-170v-33z" />
<glyph horiz-adv-x="583" d="M53 362l162 162v-491h-139v-33h459v33h-144v645l158 158v49l-158 -158v649h-315v-33h139v-770l-162 -161v-50z" />
<glyph horiz-adv-x="1042" d="M70 0h919v412h-33q-4 -104 -26.5 -177t-61.5 -117t-93 -64.5t-124 -20.5h-391l715 1294v49h-895v-356h29q2 94 25.5 156.5t61 99.5t85 52t100.5 15h395l-706 -1290v-53zM285 1704l268 -272h12l273 272l-15 8l-264 -139l-262 139z" />
<glyph horiz-adv-x="823" d="M106 0h656v268h-25q-8 -123 -58 -179t-149 -56h-239l450 721v49h-598v-246h25q6 63 22.5 104t41 66t56 34t68.5 9h207l-457 -725v-45zM154 1253l270 -272h12l271 272l-13 7l-264 -138l-262 138z" />
<glyph unicode=" "  horiz-adv-x="550" />
<glyph unicode="&#x09;" horiz-adv-x="550" />
<glyph unicode="&#xa0;" horiz-adv-x="550" />
<glyph unicode="!" horiz-adv-x="550" d="M168 1186q0 -49 7 -103.5t17.5 -105.5t20.5 -95t16 -75q23 -125 31 -250t14 -215h25q6 90 14.5 215t30.5 250q6 31 16.5 75t20.5 95t17.5 105.5t7.5 103.5q0 55 -11.5 92t-28 57.5t-37 28.5t-40.5 8q-23 0 -44.5 -8t-38 -28.5t-27.5 -57.5t-11 -92zM180 102 q0 -47 32 -78.5t79 -31.5t78.5 31.5t31.5 78.5t-31.5 79t-78.5 32t-79 -31.5t-32 -79.5z" />
<glyph unicode="&#x22;" horiz-adv-x="665" d="M113 1364q0 25 19.5 57.5t70.5 32.5t70.5 -32.5t19.5 -57.5t-10.5 -52.5t-20.5 -64.5q-10 -35 -19.5 -79t-9.5 -103q0 -10 1.5 -21.5t1.5 -21.5q0 -35 -33 -35t-33 35q0 10 1 21.5t1 21.5q0 59 -9 103t-20 79q-10 37 -20 64.5t-10 52.5zM399 1364q0 25 19.5 57.5 t70.5 32.5t71 -32.5t20 -57.5t-10.5 -52.5t-20.5 -64.5q-10 -35 -19.5 -79t-9.5 -103q0 -10 1 -21.5t1 -21.5q0 -35 -33 -35t-32 35q0 10 1 21.5t1 21.5q0 59 -9.5 103t-19.5 79q-10 37 -20.5 64.5t-10.5 52.5z" />
<glyph unicode="#" horiz-adv-x="1167" d="M59 524h281l-68 -272h54l65 272h301l-69 -282h53l67 282h289l19 54h-293l59 245h277l18 54h-283l68 270h-53l-66 -270h-301l68 270h-53l-66 -270h-299l-16 -54h301l-60 -245h-274zM406 578l59 245h299l-59 -245h-299z" />
<glyph unicode="$" horiz-adv-x="1189" d="M117 242q0 -47 28.5 -87t77.5 -71t112.5 -52.5t133.5 -33.5v-141h33v137q51 -6 98 -6h37q18 0 39 4v-135h33v137q98 14 167.5 51t115.5 90t67.5 122t21.5 146q0 86 -28.5 154t-78.5 116t-118 77.5t-147 42.5v542q29 -4 58.5 -12t54 -19.5t40 -22.5t15.5 -21 q0 -16 -17 -25q-53 -27 -53 -88q0 -41 28.5 -65.5t69.5 -24.5q51 0 77 30.5t26 75.5q0 63 -73 120.5t-226 84.5v141h-33v-139q-18 4 -39 4h-39q-57 0 -96 -6v141h-33v-147q-160 -39 -250 -143.5t-90 -245.5t89 -240.5t251 -122.5v-577q-47 6 -90 19.5t-77 28.5t-54.5 32.5 t-20.5 31.5q0 10 22.5 20.5t38 34t15.5 52.5q0 33 -24.5 60.5t-69.5 27.5q-39 0 -65.5 -26.5t-26.5 -71.5zM219 1044q0 100 66.5 177t183.5 104v-504q-133 29 -191.5 81t-58.5 142zM502 29v575q39 -6 82 -10t92 -10v-557q-43 -6 -84 -7q-23 0 -42.5 2.5t-47.5 6.5zM502 817 v516q23 4 47 6t51 2q20 0 40 -1t36 -3v-540q-43 8 -91 11t-83 9zM709 33v549q156 -29 221 -90.5t65 -172.5q0 -74 -26.5 -125t-67.5 -84.5t-92 -52t-100 -24.5z" />
<glyph unicode="%" horiz-adv-x="1531" d="M70 1006q0 -74 21.5 -146t63.5 -128t105.5 -91t149.5 -35q82 0 142 34t100 90t59.5 128t19.5 148q0 74 -20.5 144.5t-61.5 125.5t-102.5 89t-145.5 34t-145 -34t-103 -89t-62.5 -125.5t-20.5 -144.5zM242 981v49q0 68 3 129.5t18.5 108.5t47 75.5t90.5 28.5 q57 0 89 -27.5t47.5 -74.5t18.5 -109.5t3 -130.5v-49q0 -74 -3 -137.5t-17.5 -110.5t-45 -73.5t-83.5 -26.5q-61 0 -96 28.5t-50.5 75.5t-18.5 110.5t-3 133.5zM268 -8h72l911 1407h-71zM793 377q0 -74 21.5 -145.5t63.5 -128t105.5 -91.5t149.5 -35q82 0 142 34t100 90.5 t59.5 128t19.5 147.5q0 74 -20.5 144.5t-61.5 125.5t-102.5 89t-145.5 34t-145 -34t-103 -89t-62.5 -125.5t-20.5 -144.5zM965 352v49q0 68 3 129.5t18 108.5t47 75.5t91 28.5q57 0 89 -27.5t47.5 -74.5t18.5 -109.5t3 -130.5v-49q0 -74 -3 -137t-17.5 -110.5t-45 -74 t-83.5 -26.5q-61 0 -96.5 28.5t-50.5 76t-18 111t-3 132.5z" />
<glyph unicode="&#x26;" horiz-adv-x="1542" d="M51 307q0 -158 95.5 -244t252.5 -86q111 0 204 33t164 74t114 77t51 42l131 -203h401v33h-215l-186 278q113 115 174 238t84 254h174v33h-399v-33h182q-18 -111 -77.5 -227.5t-166.5 -221.5l-344 525q74 39 124 72.5t81 68.5t44 74t13 88q0 102 -73.5 154.5t-184.5 52.5 q-72 0 -130 -23t-99 -61.5t-62.5 -90t-21.5 -108.5q0 -33 8 -67.5t29 -63.5l96 -146q-233 -111 -348 -238.5t-115 -283.5zM246 469q0 55 18.5 100t55 84t91 74t126.5 70l366 -553q-35 -25 -76 -53.5t-86 -51t-93 -38t-93 -15.5q-70 0 -126 39t-97 96.5t-63.5 125 t-22.5 122.5zM506 1223q0 70 47 103.5t111 33.5q47 0 78.5 -20.5t51 -50t27.5 -65.5t8 -67q0 -55 -10 -93t-30.5 -65.5t-51 -48t-69.5 -39.5l-129 193q-20 29 -26.5 59.5t-6.5 59.5z" />
<glyph unicode="'" horiz-adv-x="430" d="M133 1364q0 25 19.5 57.5t70.5 32.5t70.5 -32.5t19.5 -57.5t-10 -52.5t-20 -64.5q-10 -35 -19.5 -79t-9.5 -103q0 -10 1 -21.5t1 -21.5q0 -35 -33 -35t-33 35q0 10 1.5 21.5t1.5 21.5q0 59 -9.5 103t-19.5 79q-10 37 -20.5 64.5t-10.5 52.5z" />
<glyph unicode="(" horiz-adv-x="473" d="M84 637q0 -117 16.5 -236.5t50 -230.5t84 -207t117.5 -166q8 -12 21 -12q10 0 10 14q0 16 -10 33q-41 68 -70 161t-47 199.5t-27.5 221t-9.5 223.5t9.5 222.5t27.5 220t47 200.5t70 162q14 27 14 41q0 12 -8 12t-27 -18q-68 -70 -118 -166.5t-83.5 -207t-50 -230 t-16.5 -236.5z" />
<glyph unicode=")" horiz-adv-x="473" d="M92 1483q0 -14 14 -41q39 -68 69 -162t48.5 -200.5t27.5 -220t9 -222.5t-9 -223.5t-27.5 -221t-48.5 -199.5t-69 -161q-10 -16 -10 -33q0 -14 10 -14t21 12q68 70 118 166t83.5 207t50 230.5t16.5 236.5t-16.5 236.5t-50 230t-83.5 207t-118 166.5q-18 18 -27 18 q-8 0 -8 -12z" />
<glyph unicode="*" horiz-adv-x="837" d="M76 950q0 23 18.5 42.5t59.5 25.5q96 16 156.5 45t82.5 43q-23 14 -83 43t-156 45q-41 6 -59.5 25.5t-18.5 42.5q0 27 18.5 47t46.5 20q39 0 70 -39q59 -74 116.5 -111.5t80.5 -50.5q0 57 -9.5 123t-36.5 127q-10 25 -10 45q0 35 21.5 51.5t46.5 16.5q27 0 47 -16.5 t20 -51.5q0 -18 -10 -45q-27 -61 -36 -126.5t-9 -123.5q27 14 81 54.5t114 111.5q31 39 67 39q29 0 47.5 -21.5t18.5 -47.5q0 -23 -17.5 -43.5t-60.5 -26.5q-92 -14 -151.5 -43t-84.5 -45q25 -16 84.5 -45t151.5 -43q43 -6 60.5 -26.5t17.5 -43.5q0 -27 -18.5 -48t-47.5 -21 q-37 0 -67 39q-59 72 -113.5 111.5t-81.5 53.5q0 -57 9.5 -122.5t35.5 -126.5q10 -27 10 -46q0 -35 -20.5 -51t-46.5 -16q-25 0 -46.5 16.5t-21.5 50.5q0 20 10 46q27 61 36.5 126.5t9.5 122.5q-23 -12 -80.5 -50t-116.5 -111q-31 -39 -70 -39q-29 0 -47 20.5t-18 46.5z" />
<glyph unicode="+" horiz-adv-x="792" d="M72 512h276v-276h111v276h276v111h-276v276h-111v-276h-276v-111z" />
<glyph unicode="," horiz-adv-x="538" d="M168 127q0 -51 32.5 -79t82.5 -28q33 0 59.5 18.5t30.5 53.5q0 18 6 19q18 0 18 -50q0 -27 -11 -60.5t-34.5 -68t-60.5 -66.5t-88 -52q-10 -6 -10 -11q0 -6 10 -6q4 0 12 4q61 25 104 60t71 75.5t41 83.5t13 80q0 63 -42 103.5t-101 40.5t-96 -32t-37 -85z" />
<glyph unicode="-" horiz-adv-x="573" d="M115 500h366v110h-366v-110z" />
<glyph unicode="." horiz-adv-x="440" d="M113 102q0 -47 31.5 -78.5t78.5 -31.5t79 31.5t32 78.5t-32 79t-79 32t-78.5 -31.5t-31.5 -79.5z" />
<glyph unicode="/" horiz-adv-x="573" d="M0 -143h55l506 1618h-55z" />
<glyph unicode="0" d="M63 672q0 -133 36 -259t100.5 -224.5t154.5 -159t199 -60.5t199 60.5t154.5 159t100 224.5t35.5 259q0 131 -35.5 258t-100 225t-154.5 158.5t-199 60.5t-199 -60.5t-154.5 -158.5t-100.5 -225t-36 -258zM289 518v307q0 152 18.5 251.5t52 158.5t83 82.5t110.5 23.5 t110.5 -22.5t83 -79.5t52 -157.5t18.5 -256.5v-307q0 -152 -18.5 -251t-52 -158.5t-83 -83t-110.5 -23.5t-110.5 23.5t-83 83t-52 159t-18.5 250.5z" />
<glyph unicode="1" d="M272 1280l217 27v-1274h-206v-33h612v33h-207v1317l-18 14l-398 -51v-33z" />
<glyph unicode="2" d="M82 0h907l23 381v16q0 49 -15 49q-10 0 -14 -13t-12 -48q-23 -100 -65 -158.5t-134 -58.5h-575l434 377q74 63 138.5 124.5t112.5 124t76.5 127t28.5 132.5q0 88 -38 148.5t-99.5 98t-138 54t-152.5 16.5q-90 0 -171 -20.5t-142.5 -60.5t-97 -97t-35.5 -131 q0 -61 36.5 -100t102.5 -39q51 0 95 30.5t44 94.5q0 41 -31.5 78.5t-80.5 37.5q-8 0 -14.5 -1t-14.5 -3q-4 0 -5 -1t-3 -1q-18 0 -19 23q0 31 26.5 58.5t67.5 47t91.5 30.5t99.5 11q141 0 205.5 -76.5t64.5 -226.5q0 -135 -46 -241.5t-148 -204.5l-502 -472v-106z" />
<glyph unicode="3" d="M147 238q0 -68 36 -119t91.5 -85t125 -51.5t137.5 -17.5q100 0 184 33t145.5 89t95 130t33.5 158q0 129 -79.5 219t-253.5 127q37 2 89 23.5t101 61.5t84 99.5t35 138.5q0 86 -35 147.5t-93.5 102.5t-133 60.5t-154.5 19.5q-102 0 -172 -24.5t-113 -60.5t-62.5 -74.5 t-19.5 -67.5q0 -59 35 -92t84 -33q55 0 90 29.5t35 78.5t-24.5 76t-59.5 37q-18 6 -18 25q0 10 12 20q29 23 84 38t115 15q80 0 127 -26.5t70.5 -67.5t29.5 -90t6 -96q0 -84 -21.5 -143.5t-60.5 -97.5t-90 -55t-113 -17q-33 0 -72.5 4t-66.5 4q-25 0 -37 -9.5t-12 -21.5 q0 -10 12.5 -19.5t36.5 -9.5q27 0 67 3t72 3q92 0 152.5 -29.5t95.5 -77.5t48.5 -107.5t13.5 -116.5q0 -92 -21.5 -162t-60.5 -116t-90.5 -69.5t-112.5 -23.5q-53 0 -111.5 17.5t-95.5 48.5q-14 12 -14 28q0 6 4 14.5t14.5 12.5t27.5 11t32.5 21.5t27 36t11.5 54.5 q0 70 -39 102.5t-92 32.5t-92.5 -37t-39.5 -104z" />
<glyph unicode="4" d="M76 422h489v-389h-180v-33h557v33h-182v389h239v-193h33v433h-33v-207h-239v956h-82l-22 -31q-23 -32 -70 -102t-120 -180.5t-175 -268.5q-45 -68 -84 -133t-68.5 -116.5t-46.5 -83.5l-16 -31v-43zM115 455q6 12 30.5 55t56 99.5t68.5 117.5t68 111q25 39 61.5 93 t71.5 106.5t61.5 91t32.5 49.5v-723h-450z" />
<glyph unicode="5" d="M135 229q0 -66 34 -114.5t87 -81.5t118.5 -50.5t127.5 -17.5q100 0 193 32t166 91t117 144t44 194q0 117 -47 199t-125 134t-176.5 76.5t-200.5 24.5q-109 0 -163 -12t-85 -25v346h500q51 0 85 21.5t54.5 51.5t29.5 62.5t9 55.5q0 47 -20 47q-10 0 -15.5 -7t-9.5 -22 q-4 -20 -20.5 -26t-55.5 -6h-520q-41 0 -59.5 -21.5t-18.5 -58.5v-506q57 31 119 44t170 13q74 0 136.5 -26.5t108.5 -76.5t71.5 -123t25.5 -167q0 -211 -83 -316.5t-230 -105.5q-74 0 -132.5 21.5t-101.5 58.5q-14 12 -14 24q0 6 2 12.5t12 10.5q14 4 32.5 10t35 18.5 t28 33t11.5 51.5q0 59 -36 87.5t-83 28.5t-84 -33.5t-37 -95.5z" />
<glyph unicode="6" d="M100 530q0 -125 41 -230t108.5 -182t157 -120t185.5 -43q98 0 180 37t142.5 100.5t93 146.5t32.5 175q0 84 -27.5 166t-81.5 147.5t-134 105t-185 39.5q-88 0 -154.5 -36.5t-103.5 -108.5q10 137 41 233.5t103 167.5q39 41 88 76t102 62.5t108.5 48t106.5 33.5v49 q-49 -8 -114.5 -28.5t-141.5 -55.5t-153.5 -89.5t-151.5 -129.5q-115 -119 -178.5 -265.5t-63.5 -298.5zM346 338v184q0 47 5 80t9 51q20 72 79 127.5t157 55.5q70 0 114 -24t68.5 -64.5t32.5 -96t8 -121.5v-186q0 -72 -7 -136.5t-31.5 -112.5t-70.5 -75.5t-122 -27.5 q-74 0 -121 26.5t-73.5 73.5t-37 109.5t-10.5 136.5z" />
<glyph unicode="7" d="M158 993h30q23 98 57 137t87 39h557l-340 -622q-80 -150 -110.5 -251t-30.5 -181q0 -61 23.5 -105.5t90.5 -44.5q29 0 49.5 13.5t32.5 34t18.5 47t6.5 53.5q0 31 -6.5 51t-14.5 47q-14 45 -24.5 79t-10.5 93q0 49 14.5 114.5t57.5 145.5l361 664l-27 36h-750z" />
<glyph unicode="8" d="M123 342q0 -96 39 -166t100.5 -116t139 -68.5t155.5 -22.5t156 22.5t139 68.5t100 117t39 167q0 98 -45 168t-107.5 113t-131 62.5t-115.5 19.5q-18 0 -19 4q1 0 19 4q70 8 134.5 32.5t113.5 66.5t77.5 100.5t28.5 132.5q0 72 -31.5 130t-85 98t-124 61.5t-148.5 21.5 t-148.5 -21.5t-124 -61.5t-85 -97.5t-31.5 -128.5q0 -76 28.5 -134.5t78 -100.5t113 -66.5t134.5 -32.5q18 -4 19 -4q0 -4 -19 -4q-47 0 -115.5 -19.5t-132 -62.5t-107.5 -113t-44 -170zM319 344q0 100 34 167t76 106.5t80 56t48 16.5t48 -16.5t80 -56t76 -105.5t34 -164 q0 -158 -56.5 -253t-181.5 -95t-181.5 95t-56.5 249zM360 1053q0 123 51.5 198.5t145.5 75.5t145.5 -75.5t51.5 -198.5q0 -94 -27 -155.5t-60.5 -98.5t-66.5 -51.5t-43 -14.5t-43 14.5t-66.5 51.5t-60.5 98.5t-27 155.5z" />
<glyph unicode="9" d="M102 913q0 -84 28 -165.5t82 -147t134 -105.5t184 -40q88 0 154.5 36.5t103.5 108.5q-10 -137 -40.5 -233.5t-102.5 -167.5q-39 -41 -88 -76t-102.5 -62.5t-108.5 -48t-106 -32.5v-50q49 8 114.5 29t141 55.5t153.5 89t152 129.5q115 119 178 265.5t63 298.5 q0 125 -40.5 230.5t-108.5 182t-157 119.5t-185 43q-98 0 -180 -37t-142.5 -100.5t-93.5 -146t-33 -175.5zM324 797v186q0 72 7 136.5t31.5 112.5t69.5 75.5t123 27.5q74 0 121 -26.5t73.5 -73.5t37 -109.5t10.5 -136.5v-184q0 -47 -5.5 -80t-9.5 -51q-10 -37 -30.5 -70 t-49 -57.5t-67.5 -39.5t-88 -15q-72 0 -115 23.5t-67.5 64.5t-32.5 96t-8 121z" />
<glyph unicode=":" horiz-adv-x="462" d="M129 102q0 -47 32 -78.5t79 -31.5t78.5 31.5t31.5 78.5t-31.5 79t-78.5 32t-79 -31.5t-32 -79.5zM129 664q0 -47 32 -79t79 -32t78.5 32t31.5 79t-31.5 78.5t-78.5 31.5t-79 -31.5t-32 -78.5z" />
<glyph unicode=";" horiz-adv-x="495" d="M125 127q0 -51 32.5 -79t82.5 -28q33 0 59.5 18.5t30.5 53.5q0 18 6 19q18 0 18 -50q0 -27 -11 -60.5t-34.5 -68t-60.5 -66.5t-88 -52q-10 -6 -10 -11q0 -6 10 -6q4 0 12 4q61 25 104 60t71 75.5t41 83.5t13 80q0 63 -42 103.5t-101 40.5t-96 -32t-37 -85zM147 664 q0 -47 32 -79t79 -32t79 32t32 79t-32 78.5t-79 31.5t-79 -31.5t-32 -78.5z" />
<glyph unicode="&#x3c;" horiz-adv-x="770" d="M111 551l538 -330v113l-362 217l362 219v111z" />
<glyph unicode="=" horiz-adv-x="802" d="M125 358h577v111h-577v-111zM125 635h577v110h-577v-110z" />
<glyph unicode="&#x3e;" horiz-adv-x="770" d="M158 221l540 330l-540 330v-111l364 -219l-364 -217v-113z" />
<glyph unicode="?" horiz-adv-x="825" d="M106 1155q0 -47 32 -77.5t79 -30.5q53 0 84 30.5t31 75.5q0 33 -20.5 60.5t-67.5 37.5q-8 2 -8 6q0 6 10 16.5t33.5 21t61.5 18.5t93 8q106 0 155.5 -47t49.5 -103q0 -41 -20.5 -81.5t-55.5 -83.5q-29 -35 -57.5 -64t-56 -58.5t-53 -63.5t-46.5 -81q-10 -27 -14 -58.5 t-4 -66.5q0 -61 9 -120.5t15 -92.5q2 -14 17 -14q16 0 16 14q0 10 -1 19.5t-3 23.5q-2 12 -2 31v43q0 33 29.5 72t73.5 82t93.5 88t86.5 90q43 53 62.5 108.5t19.5 110.5q0 141 -85 213t-233 72q-78 0 -138.5 -17.5t-101 -45t-62.5 -63.5t-22 -73zM260 102q0 -47 32 -78.5 t79 -31.5t78.5 31.5t31.5 78.5t-31.5 79t-78.5 32t-79 -31.5t-32 -79.5z" />
<glyph unicode="@" horiz-adv-x="1509" d="M94 672q0 -141 50.5 -261t139.5 -207t211 -135.5t265 -48.5q125 0 232.5 37t172.5 93q14 12 15 28q0 25 -25 25q-8 0 -20 -6q-76 -53 -173.5 -86t-201.5 -33q-129 0 -240.5 45t-193.5 125t-128 188.5t-46 235.5q0 131 47 241.5t129 191.5t193.5 126t240.5 45 q131 0 234.5 -44t176 -117t111.5 -168t39 -197q0 -106 -30.5 -180t-77 -119t-97.5 -64.5t-90 -19.5q-45 0 -75.5 22.5t-30.5 67.5q0 10 4 30l123 541h-136l-14 -61q-20 37 -66.5 62.5t-105.5 25.5q-80 0 -144.5 -45t-109.5 -118t-68.5 -161t-23.5 -174q0 -68 15.5 -114 t41 -74.5t57 -41t66.5 -12.5q74 0 127 39t94 76q4 -35 22.5 -58.5t47.5 -39t63.5 -22.5t69.5 -7q96 0 170 34t124 94.5t75.5 141t25.5 175.5q0 117 -43 223t-123.5 187t-195.5 128t-256 47q-147 0 -269 -49t-211 -136t-138.5 -209t-49.5 -267zM518 530q0 76 18.5 159 t50 151.5t74 113.5t89.5 45q49 0 84.5 -23.5t50.5 -62.5l-105 -421q-33 -53 -85 -83t-93 -30q-84 0 -84 151z" />
<glyph unicode="A" horiz-adv-x="1353" d="M45 0h455v33h-242l129 395h412l133 -395h-211v-33h600v33h-178l-449 1362h-24l-449 -1362h-176v-33zM399 461l193 586l196 -586h-389z" />
<glyph unicode="B" horiz-adv-x="1224" d="M59 0h613q213 0 330.5 98.5t117.5 272.5q0 90 -35.5 157.5t-89 114.5t-118 72.5t-119.5 32.5q68 12 126 35.5t100 61.5t66.5 90t24.5 122q0 76 -34.5 136t-93 100t-134.5 61.5t-158 21.5h-596v-33h177v-1310h-177v-33zM434 33v694h221q141 0 202 -86t61 -246v-49 q0 -150 -57.5 -231.5t-205.5 -81.5h-221zM434 760v583h221q51 0 92 -13t70 -45t45.5 -84t16.5 -128v-33q0 -82 -16.5 -136t-45.5 -86t-70.5 -45t-91.5 -13h-221z" />
<glyph unicode="C" horiz-adv-x="1255" d="M78 688q0 -152 54 -284t142 -230t199 -155.5t225 -57.5q96 0 184.5 38t157.5 116l109 -119q10 -10 18 -10q12 0 13 14v395q-1 21 -11 21t-20 -23q-37 -84 -80 -156.5t-98.5 -126t-123 -83t-149.5 -29.5q-186 0 -276 145.5t-90 425.5v230q0 270 92 416.5t285 146.5 q80 0 145.5 -25.5t118.5 -70.5t92 -108.5t63 -137.5q6 -20 15 -21q10 0 10 25v334q0 18 -4 24.5t-12 6.5q-10 0 -27 -17l-80 -82q-66 53 -147.5 81t-173.5 28q-135 0 -251 -61.5t-201 -162t-132 -228.5t-47 -259z" />
<glyph unicode="D" horiz-adv-x="1355" d="M66 0h604q143 0 262 50t203 142.5t130 222.5t46 290q0 150 -47 273.5t-132 212.5t-203 137t-259 48h-604v-33h180v-1310h-180v-33zM444 33v1310h222q84 0 159.5 -29.5t134 -98t92 -181t33.5 -278.5v-103q0 -182 -33.5 -302t-91 -190.5t-133 -99t-161.5 -28.5h-222z" />
<glyph unicode="E" horiz-adv-x="1175" d="M68 1343h176v-1310h-174v-33h962q59 0 60 66v307q0 49 -17 49q-14 0 -22 -43q-16 -78 -35 -141.5t-49.5 -109.5t-77.5 -70.5t-119 -24.5h-330v676h162q45 0 71.5 -13.5t42 -38t24 -59.5t16.5 -78q6 -29 16 -28q12 0 12 26v416q0 25 -12 24q-10 0 -16 -28 q-8 -43 -16.5 -78t-24 -59.5t-42 -38t-71.5 -13.5h-162v602h312q70 0 117 -33.5t75.5 -83.5t41.5 -106.5t16 -101.5q0 -29 16 -29q14 0 14 27v311q0 49 -51 49h-915v-33z" />
<glyph unicode="F" horiz-adv-x="1122" d="M76 1343h176v-1310h-172v-33h547v33h-176v676h161q45 0 72 -13.5t42 -38t23.5 -59.5t16.5 -78q6 -29 16 -28q12 0 13 26v416q0 25 -13 24q-10 0 -16 -28q-8 -43 -16.5 -78t-23.5 -59.5t-42 -38t-72 -13.5h-161v602h311q70 0 117 -33.5t75.5 -83.5t42 -106.5t15.5 -101.5 q0 -29 16 -29q14 0 14 27v311q0 49 -51 49h-915v-33z" />
<glyph unicode="G" horiz-adv-x="1370" d="M74 680q0 -145 51 -276.5t137 -229.5t198.5 -155.5t235.5 -57.5q98 0 185.5 25.5t154 79t104.5 136.5t38 197v70h178v33h-608v-33h219v-193q0 -49 -10.5 -98t-39 -89t-81 -65.5t-136.5 -25.5q-178 0 -276 141.5t-98 419.5v252q0 145 27.5 249.5t77.5 171t118.5 98.5 t152.5 32q150 0 256.5 -87t171.5 -296q6 -18 19 -18q12 0 12 18v387q0 23 -16 23q-10 0 -15.5 -4.5t-13.5 -12.5l-88 -88q-59 53 -144.5 84t-181.5 31q-129 0 -243.5 -57.5t-199.5 -156t-135 -229.5t-50 -276z" />
<glyph unicode="H" horiz-adv-x="1402" d="M68 0h550v33h-176v682h543v-682h-176v-33h551v33h-176v1310h176v33h-551v-33h176v-593h-543v593h176v33h-550v-33h176v-1310h-176v-33z" />
<glyph unicode="I" horiz-adv-x="727" d="M88 0h551v33h-176v1310h176v33h-551v-33h176v-1310h-176v-33z" />
<glyph unicode="J" horiz-adv-x="757" d="M25 -25q0 -29 14 -60.5t43 -58t71 -45t97 -18.5q326 0 325 322v1228h154v33h-541v-33h189v-1306q0 -111 -31 -159t-108 -48q-41 0 -76 15.5t-56 41.5q49 0 74 30t25 75q0 35 -22.5 62.5t-65.5 27.5q-47 0 -69.5 -29.5t-22.5 -77.5z" />
<glyph unicode="K" horiz-adv-x="1376" d="M70 0h526v33h-164v1310h164v33h-526v-33h163v-1310h-163v-33zM446 754l506 -721h-178v-33h580v33h-164l-580 831l480 479h174v33h-404v-33h176z" />
<glyph unicode="L" horiz-adv-x="1226" d="M61 0h1055q59 0 60 66v307q0 49 -17 49q-14 0 -22 -43q-16 -78 -35 -141.5t-49.5 -109.5t-77.5 -70.5t-119 -24.5h-420v1310h195v33h-570v-33h177v-1310h-177v-33z" />
<glyph unicode="M" horiz-adv-x="1632" d="M70 0h360v33h-164v1276l457 -1309h27l456 1317v-1284h-164v-33h527v33h-164v1310h164v33h-379l-365 -1052l-376 1052h-379v-33h163v-1310h-163v-33z" />
<glyph unicode="N" horiz-adv-x="1345" d="M55 0h385v33h-176v1251l793 -1300h69v1359h177v33h-385v-33h176v-1005l-635 1038h-404v-33h176v-1310h-176v-33z" />
<glyph unicode="O" horiz-adv-x="1415" d="M82 682q0 -139 50 -269t136 -230.5t202 -161t247 -60.5t246.5 60.5t201.5 161t136.5 230.5t50.5 269t-50.5 269t-136.5 229.5t-201.5 159t-246.5 59.5t-247 -59.5t-202 -159t-136 -229.5t-50 -269zM334 580v204q0 160 25.5 269.5t73.5 178t120 99.5t164 31t163.5 -28.5 t120 -96.5t74 -178.5t25.5 -274.5v-204q0 -297 -98.5 -439.5t-284.5 -142.5t-284.5 142.5t-98.5 439.5z" />
<glyph unicode="P" horiz-adv-x="1110" d="M59 0h551v33h-176v600h213q90 0 165 26.5t128 75.5t83 118t30 153q0 82 -30 150.5t-85 117.5t-134 75.5t-177 26.5h-568v-33h177v-1310h-177v-33zM434 666v677h193q115 0 179 -68.5t64 -232.5v-73q0 -158 -63.5 -230.5t-159.5 -72.5h-213z" />
<glyph unicode="Q" horiz-adv-x="1394" d="M82 682q0 -123 39 -237.5t106.5 -210t160.5 -163t202 -94.5l4 -53q10 -131 56 -208.5t121 -117.5t176.5 -51.5t223.5 -11.5q18 0 19 12q0 14 -19 15q-63 0 -121.5 14t-104.5 54t-73.5 113t-27.5 189v45q109 27 202 94.5t160.5 163t106.5 210t39 237.5q0 139 -50.5 269 t-136.5 229.5t-201.5 159t-246.5 59.5t-247 -59.5t-202 -159t-136 -229.5t-50 -269zM334 580v204q0 160 25.5 269.5t73.5 178t120 99.5t164 31t163.5 -28.5t120 -96.5t74 -178.5t25.5 -274.5v-204q0 -297 -98.5 -439.5t-284.5 -142.5t-284.5 142.5t-98.5 439.5z" />
<glyph unicode="R" horiz-adv-x="1286" d="M66 0h550v33h-176v669h170q33 0 70 -11t68.5 -43t55 -88t34.5 -144q6 -53 7 -108.5t6 -106.5t18.5 -94.5t41.5 -73.5q27 -29 63 -39t77 -10q35 0 69.5 7t64 17t51 21.5t32.5 21.5q6 6 6 12t-6 7q-4 0 -13 -4q-41 -29 -92 -29q-64 0 -82 51q-6 20 -9 57t-4 80t-2 88t-7 86 q-12 82 -41 135.5t-70 87t-94 53t-115 36.5q160 29 246 113.5t86 213.5q0 80 -33.5 143.5t-91 106.5t-136.5 65.5t-167 22.5h-577v-33h176v-1310h-176v-33zM440 735v608h203q233 0 234 -268v-74q0 -266 -234 -266h-203z" />
<glyph unicode="S" horiz-adv-x="1110" d="M115 0q0 -27 18 -27q12 0 27 21l73 106q25 -23 61 -47t80 -44.5t94 -34t103 -13.5q98 0 182.5 36t146 99.5t97 150.5t35.5 187q0 137 -64.5 232.5t-203.5 136.5q-47 14 -88 24.5t-84 22.5t-90 27.5t-105 37.5q-63 25 -96 76t-33 119q0 63 27 111.5t69 79t96 46t109 15.5 q84 0 147.5 -28.5t106.5 -76t69 -109t34 -126.5q2 -20 18 -21q14 0 14 21v364q0 20 -12 21q-10 0 -22 -16l-60 -76q-37 20 -69.5 36.5t-66.5 27t-72 15.5t-87 5q-100 0 -179 -33t-134 -88t-84 -127t-29 -152q0 -109 66.5 -198.5t208.5 -136.5q68 -23 115 -37.5t88 -27.5 t82.5 -28.5t97.5 -42.5q70 -33 94.5 -91t24.5 -118q0 -74 -29 -134t-76 -101t-108.5 -63.5t-124.5 -22.5q-74 0 -141.5 25.5t-125 72.5t-99.5 117t-64 156q-6 27 -23 26q-14 0 -14 -28v-367z" />
<glyph unicode="T" horiz-adv-x="1267" d="M63 985h43q23 166 93.5 262t165.5 96h176v-1310h-176v-33h550v33h-176v1310h176q94 0 165 -96t94 -262h43l-31 356q-2 35 -41 35h-1010q-39 0 -41 -35z" />
<glyph unicode="U" horiz-adv-x="1306" d="M45 1343h176v-1001q0 -109 42 -181.5t108.5 -117.5t148.5 -63.5t162 -18.5q195 0 303.5 95.5t108.5 285.5v1001h176v33h-385v-33h176v-1001q0 -82 -25.5 -146.5t-70.5 -108.5t-105.5 -66.5t-130.5 -22.5q-143 0 -226 89t-83 255v1001h176v33h-551v-33z" />
<glyph unicode="V" horiz-adv-x="1294" d="M23 1343h176l460 -1363h37l439 1363h147v33h-367v-33h177l-340 -1058l-361 1058h184v33h-552v-33z" />
<glyph unicode="W" horiz-adv-x="1841" d="M55 1343h152l477 -1363h27l223 636l229 -636h27l479 1363h141v33h-354v-33h176l-379 -1075l-204 592l170 483h124v33h-1288v-33zM401 1343h283l231 -671l-139 -400zM879 1343h303l-152 -430z" />
<glyph unicode="X" horiz-adv-x="1402" d="M53 0h428v33h-205l369 588l334 -588h-166v-33h549v33h-158l-436 768l336 542h184v33h-430v-33h199l-312 -503l-286 503h186v33h-588v-33h176l390 -684l-392 -626h-178v-33z" />
<glyph unicode="Y" horiz-adv-x="1355" d="M66 1343h163l398 -667v-643h-197v-33h592v33h-197v696l338 614h166v33h-418v-33h199l-317 -577l-344 577h188v33h-571v-33z" />
<glyph unicode="Z" horiz-adv-x="1042" d="M70 0h919v412h-33q-4 -104 -26.5 -177t-61.5 -117t-93 -64.5t-124 -20.5h-391l715 1294v49h-895v-356h29q2 94 25.5 156.5t61 99.5t85 52t100.5 15h395l-706 -1290v-53z" />
<glyph unicode="[" horiz-adv-x="440" d="M82 -143h309v32h-141v1549h151v32h-319v-1613z" />
<glyph unicode="\" horiz-adv-x="606" d="M33 1432l499 -1575h56l-500 1575h-55z" />
<glyph unicode="]" horiz-adv-x="440" d="M70 1438h153v-1549h-143v-32h311v1613h-321v-32z" />
<glyph unicode="^" horiz-adv-x="757" d="M139 688l29 -14l219 463l219 -463l29 14l-221 604h-54z" />
<glyph unicode="_" horiz-adv-x="595" d="M0 -23v-43h610v43h-610z" />
<glyph unicode="`" horiz-adv-x="528" d="M111 1288l325 -325l15 8l-164 317h-176z" />
<glyph unicode="a" horiz-adv-x="907" d="M92 156q0 -49 17.5 -85t48 -57.5t70.5 -32t85 -10.5q47 0 85 11.5t68 29t50.5 37t32.5 37.5q6 -43 39 -79t114 -36q53 0 89 16.5t58.5 39t32 46t9.5 36.5q0 10 -6 10t-15 -17q-16 -35 -40.5 -56t-53.5 -21q-41 0 -49 33.5t-8 93.5v495q0 88 -65.5 136t-200.5 48 q-63 0 -121.5 -13t-95.5 -36q-66 -43 -66 -102q0 -29 19.5 -52.5t54.5 -23.5t56.5 20.5t21.5 51.5q0 14 -5.5 29.5t-19.5 29.5q-10 10 -16.5 14.5t-6.5 10.5q0 8 12.5 16t31 14.5t42 10.5t46.5 4q63 0 100 -24.5t37 -94.5v-242q-94 0 -176 -19t-143.5 -56t-96.5 -91.5 t-35 -121.5zM254 207q0 68 24.5 108.5t64.5 63t92.5 32t107.5 13.5v-285q0 -18 -17.5 -38.5t-43 -38t-53.5 -27.5t-46 -10q-63 0 -96 49t-33 133z" />
<glyph unicode="b" horiz-adv-x="1060" d="M66 0h331v104q14 -20 35 -43.5t49.5 -43t64.5 -32t81 -12.5q76 0 145.5 39t120.5 100.5t82 138.5t31 155q0 92 -36 170.5t-92.5 135t-125 88t-131.5 31.5q-51 0 -87 -12t-62 -29.5t-43.5 -38t-31.5 -38.5v663h-331v-33h155v-1310h-155v-33zM397 168v481q14 25 33 50.5 t44.5 48t59 37t78.5 14.5q39 0 72 -11.5t57.5 -48.5t38 -105.5t13.5 -180.5v-93q0 -104 -14.5 -172.5t-39 -108.5t-55.5 -56.5t-63 -16.5q-41 0 -75 14.5t-61.5 37t-49.5 51t-38 59.5z" />
<glyph unicode="c" horiz-adv-x="839" d="M68 399q0 -98 35.5 -177t94 -135t133.5 -86t150 -30q76 0 133.5 23.5t96.5 59.5t61.5 76t32.5 73q4 12 4 16q0 18 -16 19q-12 0 -19 -21q-12 -39 -36.5 -77t-60.5 -68.5t-84 -49t-106 -18.5q-63 0 -103 18.5t-63.5 60.5t-31.5 108.5t-8 162.5v90q0 100 12 168t37.5 110 t64.5 59.5t92 17.5q76 0 103.5 -19.5t27.5 -27.5t-6 -15q-14 -16 -21 -33.5t-7 -44.5q0 -41 26.5 -62.5t61.5 -21.5q41 0 65.5 25t24.5 64t-26.5 70.5t-66.5 53t-87 32.5t-90 11q-80 0 -156 -31.5t-135.5 -88t-96 -136t-36.5 -176.5z" />
<glyph unicode="d" horiz-adv-x="1060" d="M72 403q0 -86 35.5 -164.5t91 -138t123 -94.5t129.5 -35q82 0 137 41t92 94v-106h332v33h-156v1343h-332v-33h156v-622q-75 110 -220 110h-3q-74 0 -143.5 -36.5t-123 -97t-86 -137.5t-32.5 -157zM285 354v101q0 190 41 267t139 77q43 0 76.5 -14.5t59.5 -38t45.5 -50 t33.5 -51.5v-479q-45 -76 -99.5 -119t-121.5 -43q-43 0 -76 17.5t-54.5 57.5t-32.5 107.5t-11 167.5z" />
<glyph unicode="e" horiz-adv-x="888" d="M66 395q0 -80 28.5 -155.5t79.5 -135t124 -96.5t159 -37q70 0 127 19.5t101 53.5t75 79t49 94q6 14 6 29q0 14 -12 14q-10 0 -19 -20q-18 -43 -45.5 -86t-67.5 -76t-91.5 -53.5t-118.5 -20.5q-82 0 -132 61.5t-50 196.5v209h493q33 0 33 27q-2 33 -21.5 90t-60.5 110.5 t-108.5 93t-165.5 39.5q-82 0 -153 -38.5t-122 -100t-79.5 -139.5t-28.5 -158zM279 504v82q0 68 15 109.5t39.5 64t55.5 31t62 8.5q49 0 80.5 -17.5t50 -46t24.5 -63.5t6 -72q0 -96 -30 -96h-303z" />
<glyph unicode="f" horiz-adv-x="700" d="M49 0h483v33h-153v737h166v33h-166v401q0 154 106 154q41 0 67 -12.5t26 -20.5q0 -6 -5 -8q-20 -10 -30.5 -27.5t-10.5 -38.5q0 -33 20.5 -50t49.5 -17q35 0 50.5 21.5t15.5 49.5q0 49 -50.5 92.5t-136.5 43.5q-66 0 -131 -39t-106 -135q-29 -70 -35 -160t-6 -166v-88 h-152v-33h152v-737h-154v-33z" />
<glyph unicode="g" horiz-adv-x="872" d="M70 -313q0 -57 26.5 -100.5t75.5 -71t116.5 -42t149.5 -14.5t154 22.5t126 66.5t85 107.5t31 147.5q0 129 -69 189.5t-179 60.5h-330q-129 0 -129 88q0 59 47 89.5t121 50.5q18 -6 48 -11.5t69 -5.5q92 0 155.5 31t102.5 75t55 93t16 86q0 123 -96 209q47 55 88 73 q-8 -16 -8 -32q0 -25 17.5 -41.5t48.5 -16.5q33 0 47 19.5t14 40.5q0 31 -22.5 47t-53.5 16q-78 0 -155 -88q-29 25 -86.5 40t-122.5 15q-80 0 -142.5 -23.5t-103.5 -63t-62.5 -91t-21.5 -104.5q0 -90 52 -155.5t118 -98.5q-98 -29 -138 -74t-40 -117q0 -47 15 -81.5t41 -59 t57.5 -38t62.5 -17.5q-86 -31 -133 -86t-47 -135zM168 -274q0 39 13.5 72.5t32.5 57t40.5 37t38.5 13.5h260q49 0 87 -15.5t64.5 -42t40 -59.5t13.5 -70q0 -61 -30 -104t-75 -70.5t-101 -40t-108 -12.5q-84 0 -137 22.5t-83.5 56.5t-43 76t-12.5 79zM268 512v70 q0 125 35 171t109 46t108.5 -46t34.5 -171v-70q0 -104 -28.5 -159.5t-114.5 -55.5t-115 55.5t-29 159.5z" />
<glyph unicode="h" horiz-adv-x="1103" d="M61 0h463v33h-143v512q0 33 17.5 72.5t50 75.5t75.5 60.5t97 24.5q43 0 67.5 -14t36.5 -36.5t15 -50.5t3 -56v-588h-141v-33h461v33h-143v610q0 92 -62.5 140t-173.5 48q-121 0 -193.5 -51t-109.5 -121v717h-320v-33h144v-1310h-144v-33z" />
<glyph unicode="i" horiz-adv-x="602" d="M74 0h483v33h-154v770h-329v-33h153v-737h-153v-33zM207 1182q0 -45 30.5 -76t75.5 -31t76 31t31 76t-31 75.5t-76 30.5t-75.5 -30.5t-30.5 -75.5z" />
<glyph unicode="j" horiz-adv-x="561" d="M-33 -408q0 -55 50.5 -93t121.5 -38q137 0 218 123.5t81 352.5v866h-342v-33h166v-1128q0 -80 -41 -114t-84 -34q-16 0 -28.5 3t-18.5 14q14 8 31.5 27.5t17.5 60.5q0 33 -20.5 61.5t-63.5 28.5q-41 0 -64.5 -29t-23.5 -68zM231 1182q0 -45 31 -76t76 -31t75.5 31 t30.5 76t-30.5 75.5t-75.5 30.5t-76 -30.5t-31 -75.5z" />
<glyph unicode="k" horiz-adv-x="1105" d="M63 0h484v33h-144v403h46l282 -403h-143v-33h495v33h-143l-367 497l238 240h162v33h-383v-33h174l-303 -301h-58v907h-340v-33h164v-1310h-164v-33z" />
<glyph unicode="l" horiz-adv-x="583" d="M72 0h463v33h-144v1343h-319v-33h143v-1310h-143v-33z" />
<glyph unicode="m" horiz-adv-x="1560" d="M68 0h440v33h-131v516q0 25 17.5 62.5t48 73.5t70.5 60.5t83 24.5t64.5 -17.5t30.5 -42t10 -50t1 -44.5v-583h-133v-33h443v33h-133v499q0 31 16 72t46 78t70 62.5t89 25.5q35 0 55.5 -12.5t31.5 -34t14 -49t3 -58.5v-583h-129v-33h438v33h-133v606q0 74 -44 128t-150 54 q-123 0 -197 -51t-110 -123q-4 55 -23.5 90t-47.5 53.5t-60.5 24.5t-63.5 6q-37 0 -79 -7t-83 -26.5t-78.5 -53.5t-66.5 -87v156h-309v-33h133v-737h-133v-33z" />
<glyph unicode="n" horiz-adv-x="1087" d="M74 0h463v33h-144v508q0 35 18.5 74.5t48 74.5t67.5 57.5t79 22.5q59 0 87 -37t28 -117v-583h-143v-33h462v33h-143v598q0 106 -60.5 147t-154.5 41q-113 0 -183.5 -51t-105.5 -121v156h-319v-33h143v-737h-143v-33z" />
<glyph unicode="o" horiz-adv-x="915" d="M59 401q0 -68 29 -143.5t82 -139t128 -105.5t167 -42t167 42t127 105.5t80.5 139.5t28.5 143q0 68 -28.5 144t-80.5 139.5t-127 105t-167 41.5t-167 -41.5t-128 -105t-82 -139.5t-29 -144zM272 358v88q0 86 7.5 152t28 111t58 67.5t99.5 22.5q61 0 99 -22.5t57.5 -67.5 t26.5 -111t7 -152v-88q0 -92 -7 -158.5t-26.5 -109.5t-57.5 -64.5t-99 -21.5t-99 21.5t-58.5 64.5t-28 109.5t-7.5 158.5z" />
<glyph unicode="p" horiz-adv-x="1024" d="M53 -516v-33h443v33h-134v604q35 -51 90.5 -84t133.5 -33q74 0 143.5 35t123.5 93.5t87 137t33 166.5t-34 166t-89 136.5t-124 92t-136 33.5q-86 0 -140.5 -43t-87.5 -90v105h-309v-33h133v-1286h-133zM362 195v397q0 37 20.5 73.5t53.5 66.5t73 48.5t79 18.5 q33 0 63.5 -11.5t55 -47t39 -104.5t14.5 -183v-95q0 -115 -12.5 -183.5t-36 -105t-56 -49t-73.5 -12.5q-43 0 -82 17.5t-70 45t-49.5 60.5t-18.5 64z" />
<glyph unicode="q" horiz-adv-x="1042" d="M76 403q0 -84 33.5 -161.5t88 -138t124 -96.5t141.5 -36q90 0 141 35t86 82v-604h-133v-33h442v33h-133v1286h133v33h-309v-109q-35 53 -94 92t-137 39q-72 0 -140.5 -34.5t-122 -93t-87 -134.5t-33.5 -160zM289 303v225q0 76 14 127.5t39 83t55.5 46t63.5 14.5 q39 0 80 -19.5t74.5 -50.5t54 -72t20.5 -84v-346q0 -43 -16.5 -83t-45 -70.5t-69.5 -49t-92 -18.5q-41 0 -74 11.5t-56.5 43t-35.5 90t-12 152.5z" />
<glyph unicode="r" horiz-adv-x="819" d="M45 0h463v33h-143v561q0 33 19 67.5t51 63.5t71 46t76 17q23 0 40 -3t17 -15q0 -10 -10 -14q-12 -8 -28.5 -27.5t-16.5 -60.5q0 -43 28.5 -71t75.5 -28q41 0 72 28t31 77q0 41 -16.5 68.5t-42 45t-59.5 25.5t-69 8q-49 0 -88 -14t-69.5 -34.5t-51 -44.5t-30.5 -44v119 h-320v-33h143v-737h-143v-33z" />
<glyph unicode="s" horiz-adv-x="729" d="M94 0q0 -16 12 -16q8 0 15 10l43 63q37 -39 93 -62.5t138 -23.5q68 0 119 21.5t87 59.5t54.5 88t18.5 110q0 78 -39 147.5t-148 106.5q-18 6 -46.5 13t-60.5 15.5t-63.5 16.5t-52.5 14q-41 14 -58.5 36t-17.5 60q0 53 51.5 96.5t129.5 43.5q49 0 87 -18.5t63.5 -47 t40.5 -64.5t22 -71q2 -12 12 -12q8 0 8 12v219q0 14 -6 14q-4 0 -14 -10l-47 -47q-63 57 -156 57q-66 0 -117 -21.5t-85 -58t-51 -83.5t-17 -97q0 -76 44 -133t132 -78q27 -6 59.5 -13t66 -16t65.5 -20.5t56 -25.5q41 -23 56.5 -53.5t15.5 -63.5q0 -43 -21.5 -75t-54 -51 t-69.5 -28.5t-70 -9.5q-94 0 -165.5 52.5t-100.5 160.5q-6 18 -17 19q-12 0 -12 -17v-219z" />
<glyph unicode="t" horiz-adv-x="692" d="M47 770h139v-553q0 -115 61.5 -180.5t178.5 -65.5q121 0 171 48.5t65 132.5q2 10 2 12v6q0 16 -13 16q-16 0 -18 -20q-10 -70 -47 -110t-90 -40q-72 0 -103 49.5t-31 147.5v557h199v33h-199v321l-176 -88v-233h-139v-33z" />
<glyph unicode="u" horiz-adv-x="1105" d="M55 770h144v-571q0 -66 16 -109t45 -67.5t67 -35t79 -10.5q109 0 189.5 46.5t127.5 130.5v-154h319v33h-143v770h-319v-33h143v-510q0 -33 -19.5 -71.5t-52.5 -72.5t-76 -56.5t-88 -22.5q-72 0 -92 34.5t-20 112.5v619h-320v-33z" />
<glyph unicode="v" horiz-adv-x="1003" d="M51 770h133l328 -778h16l312 778h121v33h-304v-33h146l-213 -534l-217 534h143v33h-465v-33z" />
<glyph unicode="w" horiz-adv-x="1329" d="M55 770h133l287 -793h19l178 543l215 -543h16l248 793h141v33h-344v-33h170l-160 -514l-215 547h-14l-176 -545l-186 512h135v33h-447v-33z" />
<glyph unicode="x" horiz-adv-x="1030" d="M61 770h115l279 -401l-248 -336h-137v-33h329v33h-151l227 305l211 -305h-154v-33h463v33h-123l-297 428l232 309h131v33h-307v-33h131l-207 -281l-195 281h134v33h-433v-33z" />
<glyph unicode="y" horiz-adv-x="1036" d="M61 770h136l342 -778l-119 -314q-27 -68 -58.5 -100.5t-60.5 -32.5q-16 0 -21.5 8.5t-11.5 20.5q-12 27 -30.5 40t-49.5 13q-35 0 -53 -22.5t-18 -53.5q0 -39 25.5 -62.5t78.5 -23.5q72 0 133.5 54.5t96.5 148.5l421 1102h136v33h-324v-33h152l-213 -557l-238 557h158v33 h-482v-33z" />
<glyph unicode="z" horiz-adv-x="823" d="M106 0h656v268h-25q-8 -123 -58 -179t-149 -56h-239l450 721v49h-598v-246h25q6 63 22.5 104t41 66t56 34t68.5 9h207l-457 -725v-45z" />
<glyph unicode="{" horiz-adv-x="561" d="M37 649q25 -4 53.5 -12t53 -25.5t40 -45t15.5 -70.5v-385q0 -117 60 -170.5t153 -53.5q66 0 95.5 2t29.5 17q0 12 -20.5 14t-61.5 2q-31 0 -56.5 9.5t-46 33t-32 64.5t-11.5 104v369q0 43 -16.5 69.5t-41 42t-56 22.5t-62.5 13q31 6 62.5 12.5t56 21.5t41 42t16.5 74v409 q0 61 11.5 102.5t32 65t46 32.5t56.5 9q41 0 61.5 2t20.5 15q0 14 -30 16t-95 2q-92 0 -152.5 -52t-60.5 -169v-428q0 -41 -16.5 -67.5t-40 -44t-52.5 -28t-53 -14.5z" />
<glyph unicode="|" horiz-adv-x="235" d="M94 -104h56v1536h-56v-1536z" />
<glyph unicode="}" horiz-adv-x="571" d="M37 -94q0 -14 29.5 -16.5t95.5 -2.5q92 0 152.5 53.5t60.5 170.5v385q0 43 15.5 70.5t40 45t53 25.5t53.5 12q-25 4 -53.5 14.5t-52 28t-40 44t-16.5 67.5v428q0 117 -60.5 169t-152.5 52q-66 0 -95.5 -2t-29.5 -16q0 -12 20.5 -14.5t61.5 -2.5q31 0 56.5 -9t46 -32.5 t31.5 -64.5t11 -103v-409q0 -47 16.5 -74t41 -42t56.5 -21.5t62 -12.5q-31 -6 -62.5 -13t-56 -22.5t-41 -42t-16.5 -69.5v-369q0 -63 -11 -104t-31.5 -64.5t-46 -33t-56.5 -9.5q-41 0 -61.5 -2t-20.5 -14z" />
<glyph unicode="~" horiz-adv-x="870" d="M78 684q0 -39 24 -39q20 0 25 31q4 37 30.5 59.5t67.5 22.5q35 0 69 -18.5t77 -37.5q61 -27 110 -37t105 -10q68 0 111.5 17.5t69.5 42t35 52.5t9 50q0 35 -23 35q-25 0 -28 -33q-2 -29 -17.5 -46t-66.5 -17q-37 0 -76 15.5t-78 31.5q-53 23 -107.5 37t-107.5 14 q-61 0 -104 -17.5t-71 -43t-41 -55t-13 -54.5z" />
<glyph unicode="&#xa1;" horiz-adv-x="550" d="M168 -109q0 -55 11 -92t27.5 -57.5t38 -28.5t44.5 -8q20 0 40.5 8t37 28.5t28 57.5t11.5 92q0 49 -7.5 103.5t-17.5 106t-20.5 95.5t-16.5 74q-23 125 -31 250t-14 215h-25q-6 -90 -14 -215t-31 -250q-6 -31 -16 -74.5t-20.5 -95t-17.5 -105.5t-7 -104zM180 975 q0 -47 32 -79t79 -32t78.5 32t31.5 79t-31.5 78.5t-78.5 31.5t-79 -31.5t-32 -78.5z" />
<glyph unicode="&#xa2;" horiz-adv-x="704" d="M78 578q0 -68 24.5 -125.5t65.5 -99.5t95 -67.5t114 -29.5v-106h33v104q61 4 104 25.5t70.5 49t42 57.5t20.5 52q2 6 2 15q0 14 -12 14t-14 -12q-14 -70 -72.5 -120t-140.5 -52v598q47 0 69.5 -16.5t22.5 -28.5q0 -6 -2 -9q-20 -25 -21 -57q0 -29 18.5 -47t47.5 -18 t48 19t19 50q0 25 -17 48.5t-45 42t-64.5 28.5t-75.5 10v80h-33v-80q-141 -20 -220 -106t-79 -219zM240 532v91q0 68 6 113.5t21.5 75.5t42 46.5t67.5 22.5v-598q-86 10 -111.5 68.5t-25.5 180.5z" />
<glyph unicode="&#xa3;" horiz-adv-x="1112" d="M37 164q0 -33 11 -64.5t32.5 -56.5t55.5 -39t77 -14q102 0 147.5 36.5t69.5 84.5q49 -61 125 -97.5t166 -36.5q78 0 134 41t95 101.5t63.5 131.5t39.5 130q2 6 2 14q0 20 -15 21q-10 0 -16 -13q-39 -90 -87 -145t-132 -55q-47 0 -97.5 15t-97.5 39t-90 49.5t-76 45.5v348 h162v37h-162v348q0 84 16.5 139.5t47.5 87t73 45t95 13.5q39 0 78 -11t69.5 -28.5t50 -40t19.5 -45.5q0 -16 -12.5 -20t-26.5 -4q-23 0 -44.5 -5.5t-39.5 -17.5t-29.5 -33.5t-11.5 -56.5q0 -49 35 -75.5t84 -26.5q72 0 102.5 50t30.5 115q0 51 -25.5 94.5t-68.5 74t-98.5 47 t-112.5 16.5q-88 0 -176 -16.5t-159 -56.5t-116 -107.5t-45 -169.5q0 -43 4 -76t13.5 -66.5t22.5 -74.5t32 -99h-174v-37h188l109 -329q-49 12 -88 12t-83 -13.5t-81 -41t-61.5 -68.5t-24.5 -96zM74 164q0 33 10 55.5t25.5 37.5t34 22.5t32.5 7.5q55 0 113.5 -44t105.5 -104 q-18 -45 -58 -78.5t-124 -33.5q-66 0 -102.5 43t-36.5 94z" />
<glyph unicode="&#xa5;" horiz-adv-x="1339" d="M49 1343h164l393 -661h-196v-33h200v-104h-200v-33h200v-479h-196v-33h592v33h-197v479h199v33h-199v104h199v33h-199v47l338 614h166v33h-418v-33h199l-318 -577l-344 577h189v33h-572v-33z" />
<glyph unicode="&#xa6;" horiz-adv-x="235" d="M94 0h56v553h-56v-553zM94 772h56v608h-56v-608z" />
<glyph unicode="&#xa7;" horiz-adv-x="770" d="M80 1110q0 -94 45 -159.5t143 -92.5q-74 -16 -130 -83.5t-56 -180.5q0 -119 71.5 -201t225.5 -104q129 -20 186.5 -75.5t57.5 -127.5q0 -86 -64.5 -143.5t-181.5 -57.5q-49 0 -90 15.5t-70 37t-45 42t-16 30.5t18 10q35 0 55.5 20.5t20.5 51.5q0 37 -20.5 55.5 t-49.5 18.5q-37 0 -56.5 -27.5t-19.5 -66.5q0 -41 19.5 -80t55.5 -70t86 -50t112 -19q158 0 248 93t90 247q0 39 -7.5 77.5t-25.5 73.5t-49 63.5t-76 47.5q78 29 121 92t43 168q0 66 -18.5 123t-59.5 101t-106.5 76t-159.5 46q-96 14 -152.5 51t-56.5 109q0 39 19.5 69.5 t50 53t69.5 35t80 12.5q51 0 92 -10.5t70 -22.5t43 -24.5t14 -16.5q0 -2 -2 -2q-35 -2 -52 -24.5t-17 -51.5q0 -33 22.5 -50.5t52.5 -17.5q29 0 48.5 18.5t19.5 57.5q0 27 -14.5 57.5t-48 57.5t-90 44t-138.5 17q-72 0 -128 -26.5t-96 -69.5t-61.5 -99.5t-21.5 -117.5z M170 690q0 70 44 104.5t110 49.5q43 -6 101 -23.5t111.5 -43t90.5 -59.5t37 -77q0 -57 -43 -103t-105 -69q-100 20 -166.5 44t-106.5 50.5t-56.5 58t-16.5 68.5z" />
<glyph unicode="&#xa8;" horiz-adv-x="858" d="M188 1182q0 -41 28 -69t69 -28t68.5 28t27.5 69t-27.5 68.5t-68.5 27.5t-69 -27.5t-28 -68.5zM500 1182q0 -41 27.5 -69t68.5 -28t68.5 28t27.5 69t-27.5 68.5t-68.5 27.5t-68.5 -27.5t-27.5 -68.5z" />
<glyph unicode="&#xa9;" horiz-adv-x="1265" d="M82 762q0 -117 45 -220.5t122 -180t180 -121.5t220 -45t220.5 45t180 121.5t122 180t45.5 220.5t-45.5 220t-122 180t-180 122t-220.5 45t-220 -45t-180 -122t-122 -180t-45 -220zM129 764q0 109 41 204t111.5 165.5t166 111.5t203.5 41q109 0 204 -41t166 -111.5 t112 -166t41 -203.5q0 -109 -41 -204t-112 -165.5t-166 -111.5t-204 -41t-204 41t-165.5 111.5t-111.5 165.5t-41 204zM391 791q0 -61 22.5 -114.5t58.5 -93.5t81 -63.5t92 -23.5q43 0 78 17t59 44l47 -49q4 -4 7 -4q6 0 6 6v164q0 8 -4 8q-10 0 -13 -10q-31 -70 -73.5 -113 t-106.5 -43q-150 0 -149 227v93q0 227 153 227q66 0 107 -37t61 -100q4 -8 8 -8q6 0 6 10v139q0 10 -6 10q-8 0 -12 -6l-33 -35q-27 23 -59.5 35t-71.5 12q-55 0 -102 -25.5t-82 -67.5t-54.5 -94t-19.5 -105z" />
<glyph unicode="&#xaa;" horiz-adv-x="704" d="M96 606h537v64h-537v-64zM154 874q0 -59 39.5 -84.5t93.5 -25.5q55 0 90 23.5t51 46.5q4 -27 23.5 -48.5t68.5 -21.5q31 0 52.5 10t35 23.5t19.5 27t6 21.5q0 6 -4 6t-8 -10q-10 -20 -24.5 -32.5t-33.5 -12.5q-23 0 -28 20.5t-5 54.5v297q0 53 -39.5 82t-119.5 29 q-39 0 -73.5 -7.5t-57.5 -21.5q-39 -27 -39 -61q0 -18 11 -32.5t32 -14.5q23 0 35 12t12 31q0 20 -15 37q-6 6 -10 8t-4 6q0 8 25.5 15.5t54.5 7.5q37 0 59.5 -13.5t22.5 -54.5v-143q-57 0 -106.5 -12.5t-86 -35t-57 -54.5t-20.5 -73zM250 905q0 39 14.5 64.5t39 39t55 19.5 t65.5 8v-168q0 -12 -10.5 -24.5t-24.5 -22.5t-31.5 -17t-29.5 -7q-37 0 -57.5 29.5t-20.5 78.5z" />
<glyph unicode="&#xab;" horiz-adv-x="870" d="M61 551l347 -320h34l-247 320l247 319h-34zM360 551l347 -320h34l-247 320l247 319h-34z" />
<glyph unicode="&#xac;" horiz-adv-x="770" d="M90 694h596v43h-596v-43zM211 154q0 -43 17.5 -74t45 -52.5t62.5 -31.5t70 -10t69.5 10t63 31.5t46 53.5t17.5 75q0 45 -20.5 75.5t-49 50t-60.5 27.5t-52 8q-4 0 -5 1l-1 1q0 3 6 3q68 10 116 50t48 99q0 66 -55.5 103.5t-122.5 37.5q-72 0 -124.5 -37.5t-52.5 -101.5 q0 -70 48.5 -106.5t113.5 -44.5q8 0 8 -3l-2 -1t-6 -1q-23 0 -53.5 -8t-59 -27.5t-48 -51t-19.5 -76.5zM276 1395l97 10v-563h-92v-21h278v21h-92v588l-8 6l-183 -23v-18zM297 156q0 43 15.5 72.5t35 48t36.5 26.5t22 8q4 0 21 -7t35.5 -25.5t34 -48t15.5 -72.5 q0 -72 -25.5 -112t-80.5 -40t-82 39t-27 111zM315 473q0 55 23.5 87t67.5 32q86 0 86 -119q0 -41 -11.5 -68.5t-27 -44t-29.5 -23.5t-18 -7t-19.5 7t-31 23.5t-28 44t-12.5 68.5z" />
<glyph unicode="&#xad;" horiz-adv-x="573" d="M115 500h366v110h-366v-110z" />
<glyph unicode="&#xae;" horiz-adv-x="890" d="M59 1014q0 -78 30 -146.5t81 -120t119.5 -81t146.5 -29.5t146.5 29.5t120 81t81 120t29.5 146.5t-29.5 146.5t-81 119.5t-120 81t-146.5 30t-146.5 -30t-119.5 -81t-81 -119.5t-30 -146.5zM104 1014q0 70 27 130t72 105t105.5 71t129.5 26q68 0 128.5 -26t105.5 -71 t71.5 -105.5t26.5 -129.5q0 -70 -26.5 -130.5t-71.5 -105.5t-105.5 -70.5t-128.5 -25.5q-70 0 -130 25.5t-105 70.5t-72 105.5t-27 130.5zM262 793h176v20h-55v205h51q23 0 46.5 -17.5t29.5 -74.5q4 -35 5 -69t20 -54q10 -14 43 -15q23 0 43 7.5t26 13.5q2 2 2 4h-2h-4 q-10 -8 -29 -8q-20 0 -26 16q-4 12 -4 43t-4 56q-8 53 -35 71.5t-68 28.5q106 18 107 104q0 53 -39 81t-99 28h-184v-21h57v-399h-57v-20zM383 1038v174h63q76 0 76 -75v-25q0 -41 -19.5 -57.5t-56.5 -16.5h-63z" />
<glyph unicode="&#xaf;" horiz-adv-x="903" d="M221 1100h486v59h-486v-59z" />
<glyph unicode="&#xb0;" horiz-adv-x="458" d="M86 1241q0 -63 45 -108.5t109 -45.5q63 0 108 45.5t45 108.5t-45 108.5t-108 45.5t-108.5 -45t-45.5 -109zM119 1241q0 51 34.5 86t86.5 35q51 0 85.5 -35t34.5 -86t-34.5 -86t-85.5 -35t-86 35t-35 86z" />
<glyph unicode="&#xb1;" horiz-adv-x="815" d="M72 743h276v-276h111v276h276v111h-276v276h-111v-276h-276v-111zM104 268h598v111h-598v-111z" />
<glyph unicode="&#xb2;" horiz-adv-x="716" d="M178 803h408l10 170v8q0 23 -6 23t-12 -29q-10 -45 -30 -70.5t-61 -25.5h-258l195 168q66 57 114 112t48 117q0 39 -17.5 66.5t-45 45t-62.5 24.5t-68 7q-82 0 -141 -36.5t-59 -102.5q0 -29 16 -46t45 -17q23 0 43 14t20 43q0 18 -14 34.5t-37 16.5q-8 0 -12 -2h-4 q-8 0 -8 10q0 29 42 47.5t85 18.5q123 0 123 -135q0 -61 -20.5 -109.5t-68.5 -91.5l-225 -213v-47z" />
<glyph unicode="&#xb3;" horiz-adv-x="665" d="M162 930q0 -31 16.5 -54.5t41 -39t55 -22.5t61.5 -7q45 0 83 15.5t65.5 40t43 58t15.5 70.5q0 59 -36 99t-114 57q16 2 41 11t47.5 27.5t39 45t16.5 61.5q0 39 -16.5 66.5t-44 46t-61.5 28t-71 9.5q-45 0 -76.5 -11.5t-51 -26.5t-28 -34t-8.5 -31q0 -29 15.5 -43 t37.5 -14q25 0 40.5 13.5t15.5 35.5q0 23 -10.5 35t-26.5 16q-8 2 -8 9q0 6 6 10q12 10 36.5 15t51.5 5q37 0 57.5 -11t31.5 -28.5t14 -39t3 -42.5q0 -76 -36.5 -108.5t-92.5 -32.5q-14 0 -32.5 2t-30.5 2q-20 0 -21 -14q0 -12 21 -12q12 0 30.5 1t32.5 1q41 0 69 -13.5 t43 -35t21.5 -48t6.5 -53.5q0 -84 -37 -123t-92 -39q-23 0 -49.5 6.5t-43.5 20.5q-6 6 -6 12q0 8 9 11q10 4 26.5 15t16.5 40q0 33 -17.5 47t-40.5 14q-25 0 -42 -16t-17 -47z" />
<glyph unicode="&#xb4;" horiz-adv-x="802" d="M375 1012l14 -11l326 326h-176z" />
<glyph unicode="&#xb5;" horiz-adv-x="770" d="M100 702h598v46h-598v-46zM209 0h407l11 170v8q0 23 -6 23t-13 -29q-10 -45 -29.5 -70.5t-60.5 -25.5h-258l195 168q66 57 113.5 112.5t47.5 116.5q0 39 -17 66.5t-45 45t-62.5 24.5t-67.5 7q-82 0 -141.5 -36.5t-59.5 -102.5q0 -29 16.5 -46t45.5 -17q23 0 43 14t20 43 q0 18 -14 34.5t-37 16.5q-8 0 -12 -2h-4q-8 0 -9 10q0 23 42 42.5t85 19.5q123 0 123 -131q0 -61 -20.5 -109.5t-67.5 -91.5l-225 -213v-47zM276 1395l97 10v-563h-92v-21h278v21h-92v588l-8 6l-183 -23v-18z" />
<glyph unicode="&#xb6;" horiz-adv-x="1320" d="M76 1004q0 -96 34.5 -166t95 -116t142.5 -68.5t174 -22.5h140v-852h108v1564h176v-1564h111v1564h176v33h-711q-92 0 -174 -22.5t-142.5 -68.5t-95 -116.5t-34.5 -164.5z" />
<glyph unicode="&#xb7;" horiz-adv-x="458" d="M113 659q0 -47 31.5 -78.5t78.5 -31.5t79 31.5t32 78.5t-32 79t-79 32t-78.5 -31.5t-31.5 -79.5z" />
<glyph unicode="&#xb8;" horiz-adv-x="714" d="M244 -225q0 -8 8 -23q23 -35 56.5 -60.5t76.5 -25.5q61 0 98 33t37 82q0 27 -10 47t-25.5 35.5t-33 25t-29.5 13.5l20 98h-49l-24 -111q23 -10 45 -30.5t22 -59.5q0 -37 -24.5 -54t-55.5 -17q-23 0 -44 9t-38 30q-16 16 -24 16q-6 0 -6 -8z" />
<glyph unicode="&#xb9;" horiz-adv-x="573" d="M174 1395l96 10v-563h-92v-21h279v21h-92v588l-9 6l-182 -23v-18z" />
<glyph unicode="&#xba;" horiz-adv-x="649" d="M61 606h535v64h-535v-64zM88 1020q0 -41 17.5 -87t49 -85t77 -63.5t100.5 -24.5t100 24.5t76 63.5t48 85t17 87t-17 86t-48 83t-76 62.5t-100 24.5t-100.5 -24.5t-77 -62.5t-49 -83t-17.5 -86zM215 991v53q0 104 21.5 157.5t95.5 53.5q76 0 94 -53t18 -158v-53 q0 -111 -20.5 -161t-91.5 -50q-74 0 -95.5 50.5t-21.5 160.5z" />
<glyph unicode="&#xbb;" horiz-adv-x="847" d="M135 231h35l346 320l-346 319h-35l248 -319zM444 231h35l346 320l-346 319h-35l250 -319z" />
<glyph unicode="&#xbc;" horiz-adv-x="770" d="M117 715h596v45h-596v-45zM207 184h219v-164h-80v-22h250v22h-82v164h107v-86h20v201h-20v-94h-107v428h-37l-41 -59q-41 -60 -133 -203q-41 -61 -69 -113l-27 -51v-23zM227 205q2 6 13.5 25.5t26 44t29.5 51t30 49.5q12 18 27.5 41.5t30.5 47t27.5 41t14.5 21.5v-321 h-199zM276 1395l97 10v-563h-92v-21h278v21h-92v588l-8 6l-183 -23v-18z" />
<glyph unicode="&#xbd;" horiz-adv-x="770" d="M100 702h598v46h-598v-46zM209 0h407l11 170v8q0 23 -6 23t-13 -29q-10 -45 -29.5 -70.5t-60.5 -25.5h-258l195 168q66 57 113.5 112.5t47.5 116.5q0 39 -17 66.5t-45 45t-62.5 24.5t-67.5 7q-82 0 -141.5 -36.5t-59.5 -102.5q0 -29 16.5 -46t45.5 -17q23 0 43 14t20 43 q0 18 -14 34.5t-37 16.5q-8 0 -12 -2h-4q-8 0 -9 10q0 29 42 47.5t85 18.5q123 0 123 -135q0 -61 -20.5 -109.5t-67.5 -91.5l-225 -213v-47zM276 1395l97 10v-565h-92v-19h278v19h-92v590l-8 6l-183 -23v-18z" />
<glyph unicode="&#xbe;" horiz-adv-x="770" d="M100 692h598v43h-598v-43zM207 184h219v-164h-80v-22h250v22h-82v164h107v-86h20v201h-20v-94h-107v428h-37l-41 -59q-41 -60 -133 -203q-41 -61 -69 -113l-27 -51v-23zM227 205q2 6 13.5 25.5t26 44t29.5 51t30 49.5q12 18 27.5 41.5t30.5 47t27.5 41t14.5 21.5v-321 h-199zM233 930q0 -31 16.5 -54.5t41 -39t55.5 -22.5t62 -7q45 0 82.5 15.5t65.5 40t43 58t15 70.5q0 59 -35.5 99t-113.5 57q16 2 40.5 11t47 27.5t39 45t16.5 61.5q0 39 -16.5 66.5t-44 46t-61 28t-70.5 9.5q-45 0 -77 -11.5t-51.5 -26.5t-27.5 -34t-8 -31q0 -29 15.5 -43 t37.5 -14q25 0 40 13.5t15 35.5q0 23 -10 35t-26 16q-8 2 -9 9q0 6 7 10q12 10 36.5 15t51.5 5q37 0 57 -11t31.5 -28.5t14.5 -39t3 -42.5q0 -76 -37 -108.5t-92 -32.5q-14 0 -32.5 2t-30.5 2q-20 0 -21 -14q0 -12 21 -12q12 0 30.5 1t32.5 1q41 0 68.5 -13.5t43 -35 t21.5 -48t6 -53.5q0 -84 -36.5 -123t-92.5 -39q-23 0 -49 6.5t-43 20.5q-6 6 -6 12q0 8 8 11q10 4 26.5 15t16.5 40q0 33 -17.5 47t-39.5 14q-25 0 -42.5 -16t-17.5 -47z" />
<glyph unicode="&#xbf;" horiz-adv-x="825" d="M84 -2q0 -141 85 -213t232 -72q78 0 138.5 17.5t101.5 45t62.5 63.5t21.5 73q0 47 -31.5 77.5t-79.5 30.5q-53 0 -83.5 -30.5t-30.5 -75.5q0 -33 20.5 -60.5t67.5 -37.5q8 -2 8 -6q0 -6 -10.5 -16.5t-34 -21t-61 -18.5t-93.5 -8q-106 0 -155 47t-49 103q0 41 20 81.5 t55 83.5q27 35 56.5 64t57.5 58.5t53.5 63.5t45.5 81q10 27 14.5 58.5t4.5 66.5q0 61 -9.5 120.5t-15.5 92.5q-2 14 -16 14q-16 0 -17 -14q0 -10 1 -19.5t3 -23.5q2 -12 3 -33v-41q0 -33 -30 -72t-74 -82t-93 -88t-86 -90q-43 -53 -62.5 -108.5t-19.5 -110.5zM350 965 q0 -47 32 -79t79 -32t78.5 32t31.5 79t-31.5 78.5t-78.5 31.5t-79 -31.5t-32 -78.5z" />
<glyph unicode="&#xc0;" horiz-adv-x="1353" d="M45 0h455v33h-242l129 395h412l133 -395h-211v-33h600v33h-178l-449 1362h-24l-449 -1362h-176v-33zM399 461l193 586l196 -586h-389zM428 1747l293 -293l12 8l-147 285h-158z" />
<glyph unicode="&#xc1;" horiz-adv-x="1353" d="M45 0h455v33h-242l129 395h412l133 -395h-211v-33h600v33h-178l-449 1362h-24l-449 -1362h-176v-33zM399 461l193 586l196 -586h-389zM633 1462l12 -8l293 293h-158z" />
<glyph unicode="&#xc2;" horiz-adv-x="1353" d="M45 0h455v33h-242l129 395h412l133 -395h-211v-33h600v33h-178l-449 1362h-24l-449 -1362h-176v-33zM399 461l193 586l196 -586h-389zM399 1485l13 -8l262 139l264 -139l14 8l-272 272h-12z" />
<glyph unicode="&#xc3;" horiz-adv-x="1353" d="M45 0h455v33h-242l129 395h412l133 -395h-211v-33h600v33h-178l-449 1362h-24l-449 -1362h-176v-33zM356 1542q0 -35 23 -35q20 0 20 29q4 33 29 53.5t61 20.5q31 0 61 -17.5t71 -33.5q55 -23 99 -32t93 -9q63 0 102 16t61.5 38.5t31 47.5t8.5 43q0 31 -21 31 q-20 0 -24 -29q-2 -23 -15.5 -40t-60.5 -17q-35 0 -69.5 13.5t-69.5 27.5q-47 20 -96.5 33.5t-96.5 13.5q-55 0 -94 -16.5t-63.5 -40t-37 -50t-12.5 -47.5zM399 461l193 586l196 -586h-389z" />
<glyph unicode="&#xc4;" horiz-adv-x="1353" d="M45 0h455v33h-242l129 395h412l133 -395h-211v-33h600v33h-178l-449 1362h-24l-449 -1362h-176v-33zM399 461l193 586l196 -586h-389zM426 1599q0 -41 27.5 -68.5t68.5 -27.5t68.5 27.5t27.5 68.5t-27.5 69t-68.5 28t-68.5 -28t-27.5 -69zM737 1599q0 -41 28 -68.5 t69 -27.5t68.5 27.5t27.5 68.5t-28 69t-68 28q-41 0 -69 -28t-28 -69z" />
<glyph unicode="&#xc5;" horiz-adv-x="1353" d="M45 0h455v33h-242l129 395h412l133 -395h-211v-33h600v33h-178l-449 1362h-24l-449 -1362h-176v-33zM399 461l193 586l196 -586h-389zM522 1634q0 -63 45 -108t109 -45q63 0 108 45t45 108t-45 108.5t-108 45.5t-108.5 -45t-45.5 -109zM555 1634q0 51 35 86t86 35 t86 -34.5t35 -86.5q0 -51 -35 -86t-86 -35t-86 35t-35 86z" />
<glyph unicode="&#xc6;" horiz-adv-x="1959" d="M53 0h447v33h-224l351 551h430v-551h-170v-33h962q39 0 50.5 21.5t11.5 44.5v307q0 49 -17 49q-14 0 -22 -43q-16 -78 -34.5 -141.5t-49.5 -109.5t-78 -70.5t-119 -24.5h-329v676h161q45 0 72 -13.5t42 -38t23.5 -59.5t16.5 -78q6 -29 16 -28q12 0 13 26v416q0 25 -13 24 q-10 0 -16 -28q-8 -43 -16.5 -78t-23.5 -59.5t-42 -38t-72 -13.5h-161v602h311q70 0 117 -33.5t75.5 -83.5t42 -106.5t15.5 -101.5q0 -29 16 -29q14 0 14 27v311q0 25 -15 37t-52 12h-901v-33h176l-836 -1310h-172v-33zM649 616l408 648v-648h-408z" />
<glyph unicode="&#xc7;" horiz-adv-x="1255" d="M78 688q0 -147 51 -277t135 -228.5t190.5 -158t217.5 -65.5l-21 -88q23 -10 45.5 -30.5t22.5 -59.5q0 -37 -24.5 -54.5t-55.5 -17.5q-23 0 -44.5 9.5t-37.5 29.5q-16 16 -25 16q-6 0 -6 -8t9 -22q23 -35 56.5 -60.5t76.5 -25.5q61 0 98 32.5t37 81.5q0 27 -10.5 47.5 t-25.5 36t-32.5 24.5t-29.5 13l14 76q90 4 173 43t148 111l109 -119q10 -10 18 -10q12 0 13 14v395q0 20 -11 21q-10 0 -20 -23q-37 -84 -81 -155.5t-99.5 -123t-123 -80t-149.5 -28.5q-186 0 -275 142.5t-89 422.5v230q0 270 91 414.5t284 144.5q84 0 155.5 -25.5 t124.5 -77.5q47 -47 83 -108.5t58 -126.5q6 -20 15 -21q10 0 10 25v334q0 18 -4 24.5t-12 6.5q-10 0 -27 -17l-80 -82q-66 53 -147.5 81t-173.5 28q-135 0 -251 -61.5t-201 -162t-132 -228.5t-47 -259z" />
<glyph unicode="&#xc8;" horiz-adv-x="1175" d="M68 1343h176v-1310h-174v-33h962q59 0 60 66v307q0 49 -17 49q-14 0 -22 -43q-16 -78 -35 -141.5t-49.5 -109.5t-77.5 -70.5t-119 -24.5h-330v676h162q45 0 71.5 -13.5t42 -38t24 -59.5t16.5 -78q6 -29 16 -28q12 0 12 26v416q0 25 -12 24q-10 0 -16 -28 q-8 -43 -16.5 -78t-24 -59.5t-42 -38t-71.5 -13.5h-162v602h312q70 0 117 -33.5t75.5 -83.5t41.5 -106.5t16 -101.5q0 -29 16 -29q14 0 14 27v311q0 49 -51 49h-915v-33zM334 1747l293 -293l14 8l-147 285h-160z" />
<glyph unicode="&#xc9;" horiz-adv-x="1175" d="M68 1343h176v-1310h-174v-33h962q59 0 60 66v307q0 49 -17 49q-14 0 -22 -43q-16 -78 -35 -141.5t-49.5 -109.5t-77.5 -70.5t-119 -24.5h-330v676h162q45 0 71.5 -13.5t42 -38t24 -59.5t16.5 -78q6 -29 16 -28q12 0 12 26v416q0 25 -12 24q-10 0 -16 -28 q-8 -43 -16.5 -78t-24 -59.5t-42 -38t-71.5 -13.5h-162v602h312q70 0 117 -33.5t75.5 -83.5t41.5 -106.5t16 -101.5q0 -29 16 -29q14 0 14 27v311q0 49 -51 49h-915v-33zM586 1462l12 -8l293 293h-158z" />
<glyph unicode="&#xca;" horiz-adv-x="1175" d="M68 1343h176v-1310h-174v-33h962q59 0 60 66v307q0 49 -17 49q-14 0 -22 -43q-16 -78 -35 -141.5t-49.5 -109.5t-77.5 -70.5t-119 -24.5h-330v676h162q45 0 71.5 -13.5t42 -38t24 -59.5t16.5 -78q6 -29 16 -28q12 0 12 26v416q0 25 -12 24q-10 0 -16 -28 q-8 -43 -16.5 -78t-24 -59.5t-42 -38t-71.5 -13.5h-162v602h312q70 0 117 -33.5t75.5 -83.5t41.5 -106.5t16 -101.5q0 -29 16 -29q14 0 14 27v311q0 49 -51 49h-915v-33zM346 1485l12 -8l263 139l264 -139l14 8l-272 272h-13z" />
<glyph unicode="&#xcb;" horiz-adv-x="1175" d="M68 1343h176v-1310h-174v-33h962q59 0 60 66v307q0 49 -17 49q-14 0 -22 -43q-16 -78 -35 -141.5t-49.5 -109.5t-77.5 -70.5t-119 -24.5h-330v676h162q45 0 71.5 -13.5t42 -38t24 -59.5t16.5 -78q6 -29 16 -28q12 0 12 26v416q0 25 -12 24q-10 0 -16 -28 q-8 -43 -16.5 -78t-24 -59.5t-42 -38t-71.5 -13.5h-162v602h312q70 0 117 -33.5t75.5 -83.5t41.5 -106.5t16 -101.5q0 -29 16 -29q14 0 14 27v311q0 49 -51 49h-915v-33zM362 1599q0 -41 28 -68.5t69 -27.5t68.5 27.5t27.5 68.5t-27.5 69t-68.5 28t-69 -28t-28 -69z M674 1599q0 -41 27.5 -68.5t68.5 -27.5t68.5 27.5t27.5 68.5t-27.5 69t-68.5 28t-68.5 -28t-27.5 -69z" />
<glyph unicode="&#xcc;" horiz-adv-x="727" d="M76 1747l293 -293l12 8l-148 285h-157zM88 0h551v33h-176v1310h176v33h-551v-33h176v-1310h-176v-33z" />
<glyph unicode="&#xcd;" horiz-adv-x="727" d="M88 0h551v33h-176v1310h176v33h-551v-33h176v-1310h-176v-33zM348 1462l12 -8l293 293h-157z" />
<glyph unicode="&#xce;" horiz-adv-x="727" d="M76 1485l12 -8l262 139l264 -139l13 8l-271 272h-12zM88 0h551v33h-176v1310h176v33h-551v-33h176v-1310h-176v-33z" />
<glyph unicode="&#xcf;" horiz-adv-x="727" d="M88 0h551v33h-176v1310h176v33h-551v-33h176v-1310h-176v-33zM104 1599q0 -41 28 -68.5t69 -27.5t68.5 27.5t27.5 68.5t-27.5 69t-68.5 28t-69 -28t-28 -69zM416 1599q0 -41 27.5 -68.5t68.5 -27.5t68.5 27.5t27.5 68.5t-27.5 69t-68.5 28t-68.5 -28t-27.5 -69z" />
<glyph unicode="&#xd0;" horiz-adv-x="1355" d="M23 651h223v-618h-180v-33h604q143 0 262 50t203 142.5t130 222.5t46 290q0 150 -47 273.5t-132 212.5t-203 137t-259 48h-604v-33h180v-643h-223v-49zM444 33v618h283v49h-283v643h226q84 0 159.5 -29.5t132 -98t90 -181t33.5 -278.5v-103q0 -182 -33.5 -302t-91 -190.5 t-133 -99t-161.5 -28.5h-222z" />
<glyph unicode="&#xd1;" horiz-adv-x="1345" d="M55 0h385v33h-176v1251l793 -1300h69v1359h177v33h-385v-33h176v-1005l-635 1038h-404v-33h176v-1310h-176v-33zM356 1542q0 -35 23 -35q20 0 20 29q4 33 29 53.5t61 20.5q31 0 61 -17.5t71 -33.5q55 -23 99 -32t93 -9q63 0 102 16t61.5 38.5t31 47.5t8.5 43q0 31 -21 31 q-20 0 -24 -29q-2 -23 -15.5 -40t-60.5 -17q-35 0 -69.5 13.5t-69.5 27.5q-47 20 -96.5 33.5t-96.5 13.5q-55 0 -94 -16.5t-63.5 -40t-37 -50t-12.5 -47.5z" />
<glyph unicode="&#xd2;" horiz-adv-x="1415" d="M82 682q0 -139 50 -269t136 -230.5t202 -161t247 -60.5t246.5 60.5t201.5 161t136.5 230.5t50.5 269t-50.5 269t-136.5 229.5t-201.5 159t-246.5 59.5t-247 -59.5t-202 -159t-136 -229.5t-50 -269zM334 580v204q0 160 25.5 269.5t73.5 178t120 99.5t164 31t163.5 -28.5 t120 -96.5t74 -178.5t25.5 -274.5v-204q0 -297 -98.5 -439.5t-284.5 -142.5t-284.5 142.5t-98.5 439.5zM428 1747l293 -293l12 8l-147 285h-158z" />
<glyph unicode="&#xd3;" horiz-adv-x="1415" d="M82 682q0 -139 50 -269t136 -230.5t202 -161t247 -60.5t246.5 60.5t201.5 161t136.5 230.5t50.5 269t-50.5 269t-136.5 229.5t-201.5 159t-246.5 59.5t-247 -59.5t-202 -159t-136 -229.5t-50 -269zM334 580v204q0 160 25.5 269.5t73.5 178t120 99.5t164 31t163.5 -28.5 t120 -96.5t74 -178.5t25.5 -274.5v-204q0 -297 -98.5 -439.5t-284.5 -142.5t-284.5 142.5t-98.5 439.5zM666 1462l12 -8l293 293h-158z" />
<glyph unicode="&#xd4;" horiz-adv-x="1415" d="M82 682q0 -139 50 -269t136 -230.5t202 -161t247 -60.5t246.5 60.5t201.5 161t136.5 230.5t50.5 269t-50.5 269t-136.5 229.5t-201.5 159t-246.5 59.5t-247 -59.5t-202 -159t-136 -229.5t-50 -269zM334 580v204q0 160 25.5 269.5t73.5 178t120 99.5t164 31t163.5 -28.5 t120 -96.5t74 -178.5t25.5 -274.5v-204q0 -297 -98.5 -439.5t-284.5 -142.5t-284.5 142.5t-98.5 439.5zM446 1485l15 -8l262 139l264 -139l12 8l-270 272h-14z" />
<glyph unicode="&#xd5;" horiz-adv-x="1415" d="M82 682q0 -139 50 -269t136 -230.5t202 -161t247 -60.5t246.5 60.5t201.5 161t136.5 230.5t50.5 269t-50.5 269t-136.5 229.5t-201.5 159t-246.5 59.5t-247 -59.5t-202 -159t-136 -229.5t-50 -269zM334 580v204q0 160 25.5 269.5t73.5 178t120 99.5t164 31t163.5 -28.5 t120 -96.5t74 -178.5t25.5 -274.5v-204q0 -297 -98.5 -439.5t-284.5 -142.5t-284.5 142.5t-98.5 439.5zM381 1542q0 -35 22 -35q20 0 21 29q4 33 28.5 53.5t61.5 20.5q31 0 60.5 -17.5t70.5 -33.5q55 -23 99 -32t94 -9q63 0 102 16t61.5 38.5t30.5 47.5t8 43q0 31 -20 31 t-25 -29q-2 -23 -15 -40t-60 -17q-35 0 -70 13.5t-70 27.5q-47 20 -96 33.5t-96 13.5q-55 0 -94 -16.5t-63.5 -40t-37 -50t-12.5 -47.5z" />
<glyph unicode="&#xd6;" horiz-adv-x="1415" d="M82 682q0 -139 50 -269t136 -230.5t202 -161t247 -60.5t246.5 60.5t201.5 161t136.5 230.5t50.5 269t-50.5 269t-136.5 229.5t-201.5 159t-246.5 59.5t-247 -59.5t-202 -159t-136 -229.5t-50 -269zM334 580v204q0 160 25.5 269.5t73.5 178t120 99.5t164 31t163.5 -28.5 t120 -96.5t74 -178.5t25.5 -274.5v-204q0 -297 -98.5 -439.5t-284.5 -142.5t-284.5 142.5t-98.5 439.5zM469 1599q0 -41 27.5 -68.5t68.5 -27.5t69 27.5t28 68.5t-28 69t-69 28t-68.5 -28t-27.5 -69zM780 1599q0 -41 28 -68.5t69 -27.5t68.5 27.5t27.5 68.5t-27.5 69 t-68.5 28t-69 -28t-28 -69z" />
<glyph unicode="&#xd7;" horiz-adv-x="1155" d="M78 115l98 -99l402 404l403 -404l98 99l-403 403l403 402l-98 98l-403 -404l-402 404l-98 -98l401 -402z" />
<glyph unicode="&#xd8;" horiz-adv-x="1470" d="M82 682q0 -94 22.5 -184t64.5 -170t100 -148t130 -117l-88 -223l41 -18l86 217q63 -37 133 -57.5t146 -20.5q131 0 246.5 60.5t201.5 161t136.5 230.5t50.5 269q0 106 -30 207.5t-83 189.5t-127 157t-162 110l56 137l-41 14l-54 -135q-92 37 -194 37q-131 0 -247 -59.5 t-202 -159t-136 -229.5t-50 -269zM334 580v204q0 160 25.5 269.5t73.5 178t120 99.5t164 31q51 0 96 -8t84 -29l-467 -1182q-96 150 -96 437zM463 102l471 1201q82 -57 124 -180.5t42 -338.5v-204q0 -297 -98.5 -439.5t-284.5 -142.5q-160 0 -254 104z" />
<glyph unicode="&#xd9;" horiz-adv-x="1306" d="M45 1343h176v-1001q0 -109 42 -181.5t108.5 -117.5t148.5 -63.5t162 -18.5q195 0 303.5 95.5t108.5 285.5v1001h176v33h-385v-33h176v-1001q0 -82 -25.5 -146.5t-70.5 -108.5t-105.5 -66.5t-130.5 -22.5q-143 0 -226 89t-83 255v1001h176v33h-551v-33zM434 1747l293 -293 l12 8l-147 285h-158z" />
<glyph unicode="&#xda;" horiz-adv-x="1306" d="M45 1343h176v-1001q0 -109 42 -181.5t108.5 -117.5t148.5 -63.5t162 -18.5q195 0 303.5 95.5t108.5 285.5v1001h176v33h-385v-33h176v-1001q0 -82 -25.5 -146.5t-70.5 -108.5t-105.5 -66.5t-130.5 -22.5q-143 0 -226 89t-83 255v1001h176v33h-551v-33zM692 1462l13 -8 l292 293h-157z" />
<glyph unicode="&#xdb;" horiz-adv-x="1306" d="M45 1343h176v-1001q0 -109 42 -181.5t108.5 -117.5t148.5 -63.5t162 -18.5q195 0 303.5 95.5t108.5 285.5v1001h176v33h-385v-33h176v-1001q0 -82 -25.5 -146.5t-70.5 -108.5t-105.5 -66.5t-130.5 -22.5q-143 0 -226 89t-83 255v1001h176v33h-551v-33zM420 1485l14 -8 l262 139l265 -139l12 8l-271 272h-12z" />
<glyph unicode="&#xdc;" horiz-adv-x="1306" d="M45 1343h176v-1001q0 -109 42 -181.5t108.5 -117.5t148.5 -63.5t162 -18.5q195 0 303.5 95.5t108.5 285.5v1001h176v33h-385v-33h176v-1001q0 -82 -25.5 -146.5t-70.5 -108.5t-105.5 -66.5t-130.5 -22.5q-143 0 -226 89t-83 255v1001h176v33h-551v-33zM440 1599 q0 -41 28 -68.5t69 -27.5t68.5 27.5t27.5 68.5t-27.5 69t-68.5 28t-69 -28t-28 -69zM752 1599q0 -41 27.5 -68.5t68.5 -27.5t68.5 27.5t27.5 68.5t-27.5 69t-68.5 28t-68.5 -28t-27.5 -69z" />
<glyph unicode="&#xdd;" horiz-adv-x="1355" d="M66 1343h163l398 -667v-643h-197v-33h592v33h-197v696l338 614h166v33h-418v-33h199l-317 -577l-344 577h188v33h-571v-33zM750 1462l12 -8l293 293h-158z" />
<glyph unicode="&#xde;" horiz-adv-x="1110" d="M59 1343h177v-1310h-175v-33h549v33h-176v299h213q90 0 165 27.5t128 76.5t83 118t30 153q0 82 -30 150.5t-85 117.5t-134 75.5t-177 26.5h-193v266h176v33h-549q-2 2 -2 -16v-17zM434 365v679h193q115 0 179 -68.5t64 -232.5v-73q0 -158 -63.5 -231.5t-159.5 -73.5h-213 z" />
<glyph unicode="&#xdf;" horiz-adv-x="1159" d="M70 0h485v33h-154v1038q0 156 51.5 214t143.5 58q129 0 203.5 -76.5t74.5 -207.5q0 -57 -16 -102.5t-44 -84t-64.5 -72.5t-79.5 -69q-27 -23 -40.5 -42t-13.5 -52q0 -66 76 -90q49 -16 108.5 -43t112 -66t87 -88t34.5 -110q0 -53 -21.5 -95.5t-58 -71t-84 -45 t-98.5 -16.5t-79.5 9.5t-28.5 13.5q0 6 10 10q14 6 27.5 20.5t13.5 43.5q0 37 -19.5 55t-44.5 18q-29 0 -50 -20.5t-21 -61.5q0 -66 51 -93t139 -27q70 0 130.5 20t104.5 65.5t69.5 113t25.5 163.5q0 82 -29 143.5t-77 104.5t-109.5 71.5t-126.5 45.5q-10 4 -17.5 8t-7.5 14 q0 16 23 35q29 25 55.5 52.5t48 62t34.5 78.5t13 102q0 150 -82 233.5t-229 83.5q-166 0 -268.5 -102.5t-102.5 -325.5v-145h-155v-33h155v-737h-155v-33z" />
<glyph unicode="&#xe0;" horiz-adv-x="907" d="M92 156q0 -49 17.5 -85t48 -57.5t70.5 -32t85 -10.5q47 0 85 11.5t68 29t50.5 37t32.5 37.5q6 -43 39 -79t114 -36q53 0 89 16.5t58.5 39t32 46t9.5 36.5q0 10 -6 10t-15 -17q-16 -35 -40.5 -56t-53.5 -21q-41 0 -49 33.5t-8 93.5v495q0 88 -65.5 136t-200.5 48 q-63 0 -121.5 -13t-95.5 -36q-66 -43 -66 -102q0 -29 19.5 -52.5t54.5 -23.5t56.5 20.5t21.5 51.5q0 14 -5.5 29.5t-19.5 29.5q-10 10 -16.5 14.5t-6.5 10.5q0 8 12.5 16t31 14.5t42 10.5t46.5 4q63 0 100 -24.5t37 -94.5v-242q-94 0 -176 -19t-143.5 -56t-96.5 -91.5 t-35 -121.5zM123 1309l326 -326l16 8l-166 318h-176zM254 207q0 68 24.5 108.5t64.5 63t92.5 32t107.5 13.5v-285q0 -18 -17.5 -38.5t-43 -38t-53.5 -27.5t-46 -10q-63 0 -96 49t-33 133z" />
<glyph unicode="&#xe1;" horiz-adv-x="907" d="M92 156q0 -49 17.5 -85t48 -57.5t70.5 -32t85 -10.5q47 0 85 11.5t68 29t50.5 37t32.5 37.5q6 -43 39 -79t114 -36q53 0 89 16.5t58.5 39t32 46t9.5 36.5q0 10 -6 10t-15 -17q-16 -35 -40.5 -56t-53.5 -21q-41 0 -49 33.5t-8 93.5v495q0 88 -65.5 136t-200.5 48 q-63 0 -121.5 -13t-95.5 -36q-66 -43 -66 -102q0 -29 19.5 -52.5t54.5 -23.5t56.5 20.5t21.5 51.5q0 14 -5.5 29.5t-19.5 29.5q-10 10 -16.5 14.5t-6.5 10.5q0 8 12.5 16t31 14.5t42 10.5t46.5 4q63 0 100 -24.5t37 -94.5v-242q-94 0 -176 -19t-143.5 -56t-96.5 -91.5 t-35 -121.5zM254 207q0 68 24.5 108.5t64.5 63t92.5 32t107.5 13.5v-285q0 -18 -17.5 -38.5t-43 -38t-53.5 -27.5t-46 -10q-63 0 -96 49t-33 133zM365 991l16 -8l326 326h-177z" />
<glyph unicode="&#xe2;" horiz-adv-x="907" d="M92 156q0 -49 17.5 -85t48 -57.5t70.5 -32t85 -10.5q47 0 85 11.5t68 29t50.5 37t32.5 37.5q6 -43 39 -79t114 -36q53 0 89 16.5t58.5 39t32 46t9.5 36.5q0 10 -6 10t-15 -17q-16 -35 -40.5 -56t-53.5 -21q-41 0 -49 33.5t-8 93.5v495q0 88 -65.5 136t-200.5 48 q-63 0 -121.5 -13t-95.5 -36q-66 -43 -66 -102q0 -29 19.5 -52.5t54.5 -23.5t56.5 20.5t21.5 51.5q0 14 -5.5 29.5t-19.5 29.5q-10 10 -16.5 14.5t-6.5 10.5q0 8 12.5 16t31 14.5t42 10.5t46.5 4q63 0 100 -24.5t37 -94.5v-242q-94 0 -176 -19t-143.5 -56t-96.5 -91.5 t-35 -121.5zM160 1022l14 -6l262 137l264 -137l13 6l-271 272h-12zM254 207q0 68 24.5 108.5t64.5 63t92.5 32t107.5 13.5v-285q0 -18 -17.5 -38.5t-43 -38t-53.5 -27.5t-46 -10q-63 0 -96 49t-33 133z" />
<glyph unicode="&#xe3;" horiz-adv-x="907" d="M92 156q0 -49 17.5 -85t48 -57.5t70.5 -32t85 -10.5q47 0 85 11.5t68 29t50.5 37t32.5 37.5q6 -43 39 -79t114 -36q53 0 89 16.5t58.5 39t32 46t9.5 36.5q0 10 -6 10t-15 -17q-16 -35 -40.5 -56t-53.5 -21q-41 0 -49 33.5t-8 93.5v495q0 88 -65.5 136t-200.5 48 q-63 0 -121.5 -13t-95.5 -36q-66 -43 -66 -102q0 -29 19.5 -52.5t54.5 -23.5t56.5 20.5t21.5 51.5q0 14 -5.5 29.5t-19.5 29.5q-10 10 -16.5 14.5t-6.5 10.5q0 8 12.5 16t31 14.5t42 10.5t46.5 4q63 0 100 -24.5t37 -94.5v-242q-94 0 -176 -19t-143.5 -56t-96.5 -91.5 t-35 -121.5zM111 1087q0 -35 22 -34q20 0 21 28q4 33 28.5 53.5t61.5 20.5q31 0 60.5 -17.5t70.5 -33.5q55 -23 99 -32t93 -9q63 0 102.5 16.5t62 39t30.5 47t8 42.5q0 31 -20 31t-25 -29q-2 -23 -15.5 -40t-60.5 -17q-35 0 -69.5 13.5t-69.5 27.5q-47 20 -96 33.5t-97 13.5 q-55 0 -94 -16.5t-63.5 -40t-36.5 -50t-12 -47.5zM254 207q0 68 24.5 108.5t64.5 63t92.5 32t107.5 13.5v-285q0 -18 -17.5 -38.5t-43 -38t-53.5 -27.5t-46 -10q-63 0 -96 49t-33 133z" />
<glyph unicode="&#xe4;" horiz-adv-x="907" d="M92 156q0 -49 17.5 -85t48 -57.5t70.5 -32t85 -10.5q47 0 85 11.5t68 29t50.5 37t32.5 37.5q6 -43 39 -79t114 -36q53 0 89 16.5t58.5 39t32 46t9.5 36.5q0 10 -6 10t-15 -17q-16 -35 -40.5 -56t-53.5 -21q-41 0 -49 33.5t-8 93.5v495q0 88 -65.5 136t-200.5 48 q-63 0 -121.5 -13t-95.5 -36q-66 -43 -66 -102q0 -29 19.5 -52.5t54.5 -23.5t56.5 20.5t21.5 51.5q0 14 -5.5 29.5t-19.5 29.5q-10 10 -16.5 14.5t-6.5 10.5q0 8 12.5 16t31 14.5t42 10.5t46.5 4q63 0 100 -24.5t37 -94.5v-242q-94 0 -176 -19t-143.5 -56t-96.5 -91.5 t-35 -121.5zM184 1182q0 -41 28 -69t69 -28t68.5 28t27.5 69t-27.5 68.5t-68.5 27.5t-69 -27.5t-28 -68.5zM254 207q0 68 24.5 108.5t64.5 63t92.5 32t107.5 13.5v-285q0 -18 -17.5 -38.5t-43 -38t-53.5 -27.5t-46 -10q-63 0 -96 49t-33 133zM496 1182q0 -41 27.5 -69 t68.5 -28t68.5 28t27.5 69t-27.5 68.5t-68.5 27.5t-68.5 -27.5t-27.5 -68.5z" />
<glyph unicode="&#xe5;" horiz-adv-x="890" d="M92 156q0 -49 17.5 -85t48 -57.5t70.5 -32t85 -10.5q47 0 85 11.5t68 29t50.5 37t32.5 37.5q6 -43 39 -79t114 -36q53 0 89 16.5t58.5 39t32 46t9.5 36.5q0 10 -6 10t-15 -17q-16 -35 -40.5 -56t-53.5 -21q-41 0 -49 33.5t-8 93.5v495q0 88 -65.5 136t-200.5 48 q-63 0 -121.5 -13t-95.5 -36q-66 -43 -66 -102q0 -29 19.5 -52.5t54.5 -23.5t56.5 20.5t21.5 51.5q0 14 -5.5 29.5t-19.5 29.5q-10 10 -16.5 14.5t-6.5 10.5q0 8 12.5 16t31 14.5t42 10.5t46.5 4q63 0 100 -24.5t37 -94.5v-242q-94 0 -176 -19t-143.5 -56t-96.5 -91.5 t-35 -121.5zM254 207q0 68 24.5 108.5t64.5 63t92.5 32t107.5 13.5v-285q0 -18 -17.5 -38.5t-43 -38t-53.5 -27.5t-46 -10q-63 0 -96 49t-33 133zM287 1130q0 -63 45 -108t108 -45t108.5 45t45.5 108t-45 108.5t-109 45.5q-63 0 -108 -45t-45 -109zM319 1130q0 51 35 86 t86 35t86 -34.5t35 -86.5q0 -51 -34.5 -85.5t-86.5 -34.5q-51 0 -86 34.5t-35 85.5z" />
<glyph unicode="&#xe6;" horiz-adv-x="1335" d="M92 156q0 -49 17.5 -85t48 -57.5t70.5 -32t85 -10.5q47 0 86 12.5t70 31t53.5 40t34.5 39.5q51 -59 134 -91t220 -32q70 0 127.5 19.5t101.5 53.5t74.5 79t49.5 94q6 14 6 29q0 14 -13 14q-10 0 -18 -20q-18 -43 -46 -86t-67 -76t-91 -53.5t-120 -20.5q-82 0 -132 61.5 t-50 196.5v209h494q37 0 33 27q-2 33 -21.5 90t-60.5 110.5t-109 93t-166 39.5q-61 0 -115.5 -21.5t-99.5 -59.5q-63 82 -235 81q-63 0 -122 -13t-95 -36q-66 -43 -66 -102q0 -29 19.5 -52.5t54.5 -23.5t56.5 20.5t21.5 51.5q0 14 -5.5 29.5t-19.5 29.5q-10 10 -16.5 14.5 t-6.5 10.5q0 8 12.5 16t31 14.5t42 10.5t46.5 4q63 0 100 -24.5t37 -94.5v-242q-94 0 -176 -19t-143.5 -56t-96.5 -91.5t-35 -121.5zM254 207q0 68 24.5 108.5t64.5 63t92.5 32t107.5 13.5v-285q0 -18 -17.5 -38.5t-43 -38t-53.5 -27.5t-46 -10q-63 0 -96 49t-33 133z M733 504v82q0 68 15.5 109.5t40 64t55 31t61.5 8.5q49 0 81 -17.5t50.5 -46t24.5 -63.5t6 -72q0 -96 -31 -96h-303z" />
<glyph unicode="&#xe7;" horiz-adv-x="843" d="M68 399q0 -94 33.5 -170.5t88 -132t124 -88.5t143.5 -37l-19 -82q23 -10 45.5 -30.5t22.5 -59.5q0 -37 -24.5 -54t-55.5 -17q-23 0 -44.5 9t-37.5 30q-16 16 -25 16q-6 0 -6 -8t9 -23q23 -35 56.5 -60.5t76.5 -25.5q61 0 98 33t37 82q0 27 -10.5 47t-25.5 35.5t-32.5 25 t-29.5 13.5l12 69q72 4 124 30t89 60.5t57.5 72.5t30.5 69q4 12 4 16q0 18 -16 19q-12 0 -19 -21q-12 -39 -36.5 -77t-60.5 -68.5t-84 -49t-106 -18.5q-63 0 -103 18.5t-63.5 60.5t-31.5 108.5t-8 162.5v90q0 100 12 168t37.5 110t64.5 59.5t92 17.5q76 0 103.5 -19.5 t27.5 -27.5t-6 -15q-14 -16 -21 -33.5t-7 -44.5q0 -41 26.5 -62.5t61.5 -21.5q41 0 65.5 25t24.5 64t-26.5 70.5t-66.5 53t-87 32.5t-90 11q-80 0 -156 -31.5t-135.5 -88t-96 -136t-36.5 -176.5z" />
<glyph unicode="&#xe8;" horiz-adv-x="888" d="M66 395q0 -80 28.5 -155.5t79.5 -135t124 -96.5t159 -37q70 0 127 19.5t101 53.5t75 79t49 94q6 14 6 29q0 14 -12 14q-10 0 -19 -20q-18 -43 -45.5 -86t-67.5 -76t-91.5 -53.5t-118.5 -20.5q-82 0 -132 61.5t-50 196.5v209h493q33 0 33 27q-2 33 -21.5 90t-60.5 110.5 t-108.5 93t-165.5 39.5q-82 0 -153 -38.5t-122 -100t-79.5 -139.5t-28.5 -158zM164 1309l325 -326l15 8l-164 318h-176zM279 504v82q0 68 15 109.5t39.5 64t55.5 31t62 8.5q49 0 80.5 -17.5t50 -46t24.5 -63.5t6 -72q0 -96 -30 -96h-303z" />
<glyph unicode="&#xe9;" horiz-adv-x="888" d="M66 395q0 -80 28.5 -155.5t79.5 -135t124 -96.5t159 -37q70 0 127 19.5t101 53.5t75 79t49 94q6 14 6 29q0 14 -12 14q-10 0 -19 -20q-18 -43 -45.5 -86t-67.5 -76t-91.5 -53.5t-118.5 -20.5q-82 0 -132 61.5t-50 196.5v209h493q33 0 33 27q-2 33 -21.5 90t-60.5 110.5 t-108.5 93t-165.5 39.5q-82 0 -153 -38.5t-122 -100t-79.5 -139.5t-28.5 -158zM279 504v82q0 68 15 109.5t39.5 64t55.5 31t62 8.5q49 0 80.5 -17.5t50 -46t24.5 -63.5t6 -72q0 -96 -30 -96h-303zM418 991l16 -8l326 326h-176z" />
<glyph unicode="&#xea;" horiz-adv-x="888" d="M66 395q0 -80 28.5 -155.5t79.5 -135t124 -96.5t159 -37q70 0 127 19.5t101 53.5t75 79t49 94q6 14 6 29q0 14 -12 14q-10 0 -19 -20q-18 -43 -45.5 -86t-67.5 -76t-91.5 -53.5t-118.5 -20.5q-82 0 -132 61.5t-50 196.5v209h493q33 0 33 27q-2 33 -21.5 90t-60.5 110.5 t-108.5 93t-165.5 39.5q-82 0 -153 -38.5t-122 -100t-79.5 -139.5t-28.5 -158zM197 1022l12 -6l262 137l264 -137l15 6l-273 272h-12zM279 504v82q0 68 15 109.5t39.5 64t55.5 31t62 8.5q49 0 80.5 -17.5t50 -46t24.5 -63.5t6 -72q0 -96 -30 -96h-303z" />
<glyph unicode="&#xeb;" horiz-adv-x="888" d="M66 395q0 -80 28.5 -155.5t79.5 -135t124 -96.5t159 -37q70 0 127 19.5t101 53.5t75 79t49 94q6 14 6 29q0 14 -12 14q-10 0 -19 -20q-18 -43 -45.5 -86t-67.5 -76t-91.5 -53.5t-118.5 -20.5q-82 0 -132 61.5t-50 196.5v209h493q33 0 33 27q-2 33 -21.5 90t-60.5 110.5 t-108.5 93t-165.5 39.5q-82 0 -153 -38.5t-122 -100t-79.5 -139.5t-28.5 -158zM209 1182q0 -41 27.5 -69t68.5 -28t68.5 28t27.5 69t-27.5 68.5t-68.5 27.5t-68.5 -27.5t-27.5 -68.5zM279 504v82q0 68 15 109.5t39.5 64t55.5 31t62 8.5q49 0 80.5 -17.5t50 -46t24.5 -63.5 t6 -72q0 -96 -30 -96h-303zM520 1182q0 -41 27.5 -69t68.5 -28t69 28t28 69t-28 68.5t-69 27.5t-68.5 -27.5t-27.5 -68.5z" />
<glyph unicode="&#xec;" horiz-adv-x="602" d="M-16 1309l327 -326l15 8l-166 318h-176zM76 0h483v33h-153v770h-330v-33h153v-737h-153v-33z" />
<glyph unicode="&#xed;" horiz-adv-x="602" d="M76 0h483v33h-153v770h-330v-33h153v-737h-153v-33zM260 991l14 -8l328 326h-176z" />
<glyph unicode="&#xee;" horiz-adv-x="602" d="M29 1022l12 -6l262 137l264 -137l15 6l-271 272h-14zM76 0h483v33h-153v770h-330v-33h153v-737h-153v-33z" />
<glyph unicode="&#xef;" horiz-adv-x="602" d="M57 1182q0 -41 28 -69t69 -28t68.5 28t27.5 69t-27.5 68.5t-68.5 27.5t-69 -27.5t-28 -68.5zM76 0h483v33h-153v770h-330v-33h153v-737h-153v-33zM369 1182q0 -41 27.5 -69t68.5 -28t68.5 28t27.5 69t-27.5 68.5t-68.5 27.5t-68.5 -27.5t-27.5 -68.5z" />
<glyph unicode="&#xf0;" horiz-adv-x="915" d="M59 403q0 -68 29 -144.5t82 -140t128 -105.5t167 -42t167 42t127 105.5t80.5 140.5t28.5 144v58q0 35 -4 69q-20 209 -111 367t-241 256l82 121l-78 45l-84 -123q-41 18 -85 32.5t-93 24.5l-33 -53q102 -33 164 -76l-78 -116l78 -45l72 106q59 -53 94.5 -121.5 t58.5 -146.5q-33 14 -68.5 22t-76.5 8q-92 0 -167 -40.5t-128 -104t-82 -139.5t-29 -144zM272 358v91q0 86 7.5 151.5t28 110.5t58 67.5t99.5 22.5q63 0 100 -22.5t57.5 -67.5t26.5 -110.5t6 -151.5v-91q0 -92 -7 -158.5t-27.5 -109.5t-57.5 -64.5t-98 -21.5t-98 21.5 t-58.5 64.5t-29 109.5t-7.5 158.5z" />
<glyph unicode="&#xf1;" horiz-adv-x="1087" d="M74 0h463v33h-144v508q0 35 18.5 74.5t48 74.5t67.5 57.5t79 22.5q59 0 87 -37t28 -117v-583h-143v-33h462v33h-143v598q0 106 -60.5 147t-154.5 41q-113 0 -183.5 -51t-105.5 -121v156h-319v-33h143v-737h-143v-33zM205 1087q0 -35 22 -34q20 0 21 28q4 33 28.5 53.5 t61.5 20.5q31 0 60.5 -17.5t70.5 -33.5q55 -23 99 -32t94 -9q63 0 102 16.5t61.5 39t30.5 47t8 42.5q0 31 -20 31t-25 -29q-2 -23 -15 -40t-61 -17q-35 0 -69.5 13.5t-69.5 27.5q-47 20 -96 33.5t-96 13.5q-55 0 -94 -16.5t-64 -40t-37 -50t-12 -47.5z" />
<glyph unicode="&#xf2;" horiz-adv-x="915" d="M59 401q0 -68 29 -143.5t82 -139t128 -105.5t167 -42t167 42t127 105.5t80.5 139.5t28.5 143q0 68 -28.5 144t-80.5 139.5t-127 105t-167 41.5t-167 -41.5t-128 -105t-82 -139.5t-29 -144zM168 1309l326 -326l14 8l-164 318h-176zM272 358v88q0 86 7.5 152t28 111 t58 67.5t99.5 22.5q61 0 99 -22.5t57.5 -67.5t26.5 -111t7 -152v-88q0 -92 -7 -158.5t-26.5 -109.5t-57.5 -64.5t-99 -21.5t-99 21.5t-58.5 64.5t-28 109.5t-7.5 158.5z" />
<glyph unicode="&#xf3;" horiz-adv-x="915" d="M59 401q0 -68 29 -143.5t82 -139t128 -105.5t167 -42t167 42t127 105.5t80.5 139.5t28.5 143q0 68 -28.5 144t-80.5 139.5t-127 105t-167 41.5t-167 -41.5t-128 -105t-82 -139.5t-29 -144zM272 358v88q0 86 7.5 152t28 111t58 67.5t99.5 22.5q61 0 99 -22.5t57.5 -67.5 t26.5 -111t7 -152v-88q0 -92 -7 -158.5t-26.5 -109.5t-57.5 -64.5t-99 -21.5t-99 21.5t-58.5 64.5t-28 109.5t-7.5 158.5zM459 991l14 -8l326 326h-176z" />
<glyph unicode="&#xf4;" horiz-adv-x="915" d="M59 401q0 -68 29 -143.5t82 -139t128 -105.5t167 -42t167 42t127 105.5t80.5 139.5t28.5 143q0 68 -28.5 144t-80.5 139.5t-127 105t-167 41.5t-167 -41.5t-128 -105t-82 -139.5t-29 -144zM188 1022l15 -6l262 137l264 -137l12 6l-270 272h-12zM272 358v88q0 86 7.5 152 t28 111t58 67.5t99.5 22.5q61 0 99 -22.5t57.5 -67.5t26.5 -111t7 -152v-88q0 -92 -7 -158.5t-26.5 -109.5t-57.5 -64.5t-99 -21.5t-99 21.5t-58.5 64.5t-28 109.5t-7.5 158.5z" />
<glyph unicode="&#xf5;" horiz-adv-x="915" d="M59 401q0 -68 29 -143.5t82 -139t128 -105.5t167 -42t167 42t127 105.5t80.5 139.5t28.5 143q0 68 -28.5 144t-80.5 139.5t-127 105t-167 41.5t-167 -41.5t-128 -105t-82 -139.5t-29 -144zM139 1087q0 -35 23 -34q20 0 20 28q4 33 29 53.5t61 20.5q31 0 60.5 -17.5 t70.5 -33.5q55 -23 99.5 -32t93.5 -9q63 0 102 16.5t61.5 39t31 47t8.5 42.5q0 31 -21 31q-20 0 -24 -29q-2 -23 -15.5 -40t-60.5 -17q-35 0 -69.5 13.5t-69.5 27.5q-47 20 -96.5 33.5t-96.5 13.5q-55 0 -94 -16.5t-63.5 -40t-37 -50t-12.5 -47.5zM272 358v88q0 86 7.5 152 t28 111t58 67.5t99.5 22.5q61 0 99 -22.5t57.5 -67.5t26.5 -111t7 -152v-88q0 -92 -7 -158.5t-26.5 -109.5t-57.5 -64.5t-99 -21.5t-99 21.5t-58.5 64.5t-28 109.5t-7.5 158.5z" />
<glyph unicode="&#xf6;" horiz-adv-x="915" d="M59 401q0 -68 29 -143.5t82 -139t128 -105.5t167 -42t167 42t127 105.5t80.5 139.5t28.5 143q0 68 -28.5 144t-80.5 139.5t-127 105t-167 41.5t-167 -41.5t-128 -105t-82 -139.5t-29 -144zM221 1182q0 -41 27.5 -69t68.5 -28t69 28t28 69t-28 68.5t-69 27.5t-68.5 -27.5 t-27.5 -68.5zM272 358v88q0 86 7.5 152t28 111t58 67.5t99.5 22.5q61 0 99 -22.5t57.5 -67.5t26.5 -111t7 -152v-88q0 -92 -7 -158.5t-26.5 -109.5t-57.5 -64.5t-99 -21.5t-99 21.5t-58.5 64.5t-28 109.5t-7.5 158.5zM532 1182q0 -41 28 -69t69 -28t68.5 28t27.5 69 t-27.5 68.5t-68.5 27.5t-69 -27.5t-28 -68.5z" />
<glyph unicode="&#xf7;" horiz-adv-x="759" d="M115 487h544v109h-544v-109zM276 242q0 -47 32 -79t79 -32t79 32t32 79t-32 78.5t-79 31.5t-79 -31.5t-32 -78.5zM276 827q0 -47 32 -78.5t79 -31.5t79 31.5t32 78.5t-32 79t-79 32t-79 -32t-32 -79zM279 240q0 -47 31.5 -79t78.5 -32t79 32t32 79t-32 78.5t-79 31.5 t-78.5 -31.5t-31.5 -78.5zM279 825q0 -47 31.5 -78.5t78.5 -31.5t79 31.5t32 78.5t-32 79t-79 32t-78.5 -32t-31.5 -79z" />
<glyph unicode="&#xf8;" horiz-adv-x="919" d="M59 401q0 -49 14.5 -101t42 -103.5t67.5 -95.5t91 -76l-8 -21q-8 -22 -18 -49t-18 -49l-9 -21l33 -10l51 133q37 -16 77 -26.5t83 -10.5q92 0 167 42t127 105.5t80.5 139.5t28.5 143q0 53 -17 111.5t-49 112t-79.5 98.5t-106.5 74l52 131l-33 10l-51 -127 q-29 10 -57.5 15t-61.5 5q-92 0 -167 -41.5t-128 -105t-82 -139.5t-29 -144zM272 358v88q0 86 7.5 152t28 111t58 67.5t99.5 22.5q70 0 104 -27l-266 -676q-18 45 -24.5 109.5t-6.5 152.5zM326 59l272 689q35 -41 46 -117t11 -185v-88q0 -92 -7 -158.5t-26.5 -109.5 t-57.5 -64.5t-99 -21.5q-96 0 -139 55z" />
<glyph unicode="&#xf9;" horiz-adv-x="1105" d="M55 770h144v-571q0 -66 16 -109t45 -67.5t67 -35t79 -10.5q109 0 189.5 46.5t127.5 130.5v-154h319v33h-143v770h-319v-33h143v-510q0 -33 -19.5 -71.5t-52.5 -72.5t-76 -56.5t-88 -22.5q-72 0 -92 34.5t-20 112.5v619h-320v-33zM209 1309l326 -326l16 8l-166 318h-176z " />
<glyph unicode="&#xfa;" horiz-adv-x="1105" d="M55 770h144v-571q0 -66 16 -109t45 -67.5t67 -35t79 -10.5q109 0 189.5 46.5t127.5 130.5v-154h319v33h-143v770h-319v-33h143v-510q0 -33 -19.5 -71.5t-52.5 -72.5t-76 -56.5t-88 -22.5q-72 0 -92 34.5t-20 112.5v619h-320v-33zM492 991l14 -8l325 326h-176z" />
<glyph unicode="&#xfb;" horiz-adv-x="1105" d="M55 770h144v-571q0 -66 16 -109t45 -67.5t67 -35t79 -10.5q109 0 189.5 46.5t127.5 130.5v-154h319v33h-143v770h-319v-33h143v-510q0 -33 -19.5 -71.5t-52.5 -72.5t-76 -56.5t-88 -22.5q-72 0 -92 34.5t-20 112.5v619h-320v-33zM240 1022l14 -6l262 137l264 -137l13 6 l-271 272h-14z" />
<glyph unicode="&#xfc;" horiz-adv-x="1105" d="M55 770h144v-571q0 -66 16 -109t45 -67.5t67 -35t79 -10.5q109 0 189.5 46.5t127.5 130.5v-154h319v33h-143v770h-319v-33h143v-510q0 -33 -19.5 -71.5t-52.5 -72.5t-76 -56.5t-88 -22.5q-72 0 -92 34.5t-20 112.5v619h-320v-33zM287 1182q0 -41 27.5 -69t68.5 -28 t68.5 28t27.5 69t-27.5 68.5t-68.5 27.5t-68.5 -27.5t-27.5 -68.5zM598 1182q0 -41 27.5 -69t68.5 -28t69 28t28 69t-28 68.5t-69 27.5t-68.5 -27.5t-27.5 -68.5z" />
<glyph unicode="&#xfd;" horiz-adv-x="1036" d="M61 770h136l342 -778l-119 -314q-27 -68 -58.5 -100.5t-60.5 -32.5q-16 0 -21.5 8.5t-11.5 20.5q-12 27 -30.5 40t-49.5 13q-35 0 -53 -22.5t-18 -53.5q0 -39 25.5 -62.5t78.5 -23.5q72 0 133.5 54.5t96.5 148.5l421 1102h136v33h-324v-33h152l-213 -557l-238 557h158v33 h-482v-33zM578 1012l14 -11l326 326h-177z" />
<glyph unicode="&#xfe;" horiz-adv-x="1060" d="M90 -516v-33h424v33h-133v620q14 -20 34.5 -43.5t49.5 -43t64.5 -32t80.5 -12.5q80 0 149.5 37t122 97.5t83 138.5t30.5 160q0 98 -36.5 177t-94 134t-127 84.5t-133.5 29.5q-51 0 -87 -12t-61.5 -29.5t-43 -38t-31.5 -38.5v663h-291v-33h115v-1859h-115zM381 170v477 q14 25 32.5 50.5t44 48t59.5 37t79 14.5q41 0 73.5 -11.5t56.5 -48.5t37 -105.5t13 -180.5v-91q0 -104 -14 -172.5t-39 -108.5t-55.5 -55.5t-63.5 -15.5q-41 0 -74.5 14.5t-61.5 37t-49.5 51t-37.5 59.5z" />
<glyph unicode="&#xff;" horiz-adv-x="1036" d="M61 770h136l342 -778l-119 -314q-27 -68 -58.5 -100.5t-60.5 -32.5q-16 0 -21.5 8.5t-11.5 20.5q-12 27 -30.5 40t-49.5 13q-35 0 -53 -22.5t-18 -53.5q0 -39 25.5 -62.5t78.5 -23.5q72 0 133.5 54.5t96.5 148.5l421 1102h136v33h-324v-33h152l-213 -557l-238 557h158v33 h-482v-33zM319 1182q0 -41 28 -69t69 -28t68.5 28t27.5 69t-27.5 68.5t-68.5 27.5t-69 -27.5t-28 -68.5zM631 1182q0 -41 27.5 -69t68.5 -28t68.5 28t27.5 69t-27.5 68.5t-68.5 27.5t-68.5 -27.5t-27.5 -68.5z" />
<glyph unicode="&#x152;" horiz-adv-x="1982" d="M82 682q0 -139 50 -269t136 -230.5t202 -161t247 -60.5q102 0 193 38t169 101v-100h789q35 0 47 15.5t12 50.5v307q0 49 -16 49q-14 0 -23 -43q-16 -78 -34.5 -141.5t-49 -109.5t-78 -70.5t-118.5 -24.5h-330v676h162q45 0 71.5 -13.5t42 -38t23.5 -59.5t16 -78 q6 -29 17 -28q12 0 12 26v416q0 25 -12 24q-10 0 -17 -28q-8 -43 -16 -78t-23.5 -59.5t-42 -38t-71.5 -13.5h-162v602h311q70 0 117 -33.5t75.5 -83.5t42 -106.5t15.5 -101.5q0 -29 16 -29q14 0 15 27v311q0 49 -51 49h-740v-114q-78 66 -169 101.5t-193 35.5 q-131 0 -247 -59.5t-202 -159t-136 -229.5t-50 -269zM334 580v204q0 160 25.5 269.5t73.5 178t120 99.5t164 31t163.5 -28.5t120 -96.5t74 -178.5t25.5 -274.5v-204q0 -297 -97.5 -439.5t-283.5 -142.5q-190 0 -287.5 142.5t-97.5 439.5z" />
<glyph unicode="&#x153;" horiz-adv-x="1449" d="M59 403q0 -68 29 -144.5t82 -140t128 -105.5t167 -42t166 42t127 104q53 -66 126.5 -106t166.5 -40q70 0 126 19.5t101 53.5t75.5 79t49.5 94q6 14 6 29q0 14 -12 14q-10 0 -19 -20q-18 -43 -45.5 -86t-66.5 -76t-91.5 -53.5t-119.5 -20.5q-82 0 -132.5 61.5t-50.5 196.5 v209h494q37 0 33 27q-2 33 -21.5 90t-60.5 110.5t-109 93t-166 39.5q-86 0 -157.5 -41.5t-124.5 -107.5q-53 66 -128 107.5t-167 41.5t-167 -40.5t-128 -104t-82 -139.5t-29 -144zM272 358v88q0 86 7.5 152t28 111t58 67.5t99.5 22.5q63 0 100 -23.5t57.5 -67.5t26.5 -110 t6 -152v-88q0 -92 -7 -158.5t-27.5 -109.5t-57.5 -64.5t-98 -21.5t-98 21.5t-58.5 64.5t-29 109.5t-7.5 158.5zM872 504v82q0 68 15.5 109.5t40 64t55.5 31t61 8.5q49 0 81 -17.5t50.5 -46t24.5 -63.5t6 -72q0 -96 -30 -96h-304z" />
<glyph unicode="&#x178;" horiz-adv-x="1355" d="M66 1343h163l398 -667v-643h-197v-33h592v33h-197v696l338 614h166v33h-418v-33h199l-317 -577l-344 577h188v33h-571v-33zM483 1599q0 -41 28 -68.5t69 -27.5t68.5 27.5t27.5 68.5t-27.5 69t-68.5 28t-69 -28t-28 -69zM795 1599q0 -41 27.5 -68.5t68.5 -27.5t68.5 27.5 t27.5 68.5t-27.5 69t-68.5 28t-68.5 -28t-27.5 -69z" />
<glyph unicode="&#x2c6;" horiz-adv-x="671" d="M68 1022l14 -6l262 137l264 -137l13 6l-271 272h-12z" />
<glyph unicode="&#x2dc;" horiz-adv-x="923" d="M160 1087q0 -35 22 -34q20 0 21 28q4 33 28.5 53.5t61.5 20.5q31 0 60.5 -17.5t70.5 -33.5q55 -23 99 -32t93 -9q63 0 102.5 16.5t62 39t30.5 47t8 42.5q0 31 -20 31t-25 -29q-2 -23 -15.5 -40t-60.5 -17q-35 0 -69.5 13.5t-69.5 27.5q-47 20 -96 33.5t-96 13.5 q-55 0 -94.5 -16.5t-64 -40t-36.5 -50t-12 -47.5z" />
<glyph unicode="&#x2000;" horiz-adv-x="894" />
<glyph unicode="&#x2001;" horiz-adv-x="1788" />
<glyph unicode="&#x2002;" horiz-adv-x="894" />
<glyph unicode="&#x2003;" horiz-adv-x="1788" />
<glyph unicode="&#x2004;" horiz-adv-x="596" />
<glyph unicode="&#x2005;" horiz-adv-x="447" />
<glyph unicode="&#x2006;" horiz-adv-x="298" />
<glyph unicode="&#x2007;" horiz-adv-x="298" />
<glyph unicode="&#x2008;" horiz-adv-x="223" />
<glyph unicode="&#x2009;" horiz-adv-x="357" />
<glyph unicode="&#x200a;" horiz-adv-x="99" />
<glyph unicode="&#x2010;" horiz-adv-x="573" d="M115 500h366v110h-366v-110z" />
<glyph unicode="&#x2011;" horiz-adv-x="573" d="M115 500h366v110h-366v-110z" />
<glyph unicode="&#x2012;" horiz-adv-x="573" d="M115 500h366v110h-366v-110z" />
<glyph unicode="&#x2013;" horiz-adv-x="737" d="M94 500h565v110h-565v-110z" />
<glyph unicode="&#x2014;" horiz-adv-x="1421" d="M106 500h1213v110h-1213v-110z" />
<glyph unicode="&#x2018;" horiz-adv-x="518" d="M111 1155q0 -63 42 -103t101 -40t96 31.5t37 84.5q0 51 -32.5 79t-82.5 28q-33 0 -59.5 -18.5t-30.5 -53.5q0 -18 -6 -18q-18 0 -18 49q0 27 11 60.5t34.5 68.5t60.5 65.5t88 53.5q10 4 10 10t-10 6q-4 0 -12 -4q-61 -25 -105.5 -59.5t-72 -75.5t-39.5 -84t-12 -80z" />
<glyph unicode="&#x2019;" horiz-adv-x="485" d="M137 1317q0 -51 33 -79t82 -28q33 0 59.5 18.5t30.5 53.5q0 18 6 18q18 0 19 -49q0 -27 -11.5 -60.5t-35 -68.5t-60.5 -66.5t-88 -51.5q-10 -6 -10 -11q0 -6 10 -6q4 0 12 4q61 25 104.5 59.5t71 75.5t41 84t13.5 80q0 63 -42 103.5t-102 40.5q-59 0 -96 -32t-37 -85z " />
<glyph unicode="&#x201a;" horiz-adv-x="481" d="M137 215q0 -51 33 -78.5t82 -27.5q33 0 59.5 18t30.5 53q0 18 6 19q18 0 19 -49q0 -27 -11.5 -61t-35 -68.5t-60.5 -66.5t-88 -52q-10 -6 -10 -11q0 -6 10 -6q4 0 12 4q61 25 104.5 60t71 76t41 83.5t13.5 79.5q0 63 -42 103.5t-102 40.5q-59 0 -96 -32t-37 -85z" />
<glyph unicode="&#x201c;" horiz-adv-x="913" d="M127 1153q0 -63 42 -103t101 -40t96 31.5t37 84.5q0 51 -32.5 79t-81.5 28q-33 0 -59.5 -18.5t-30.5 -53.5q0 -18 -6 -18q-18 0 -19 49q0 27 11.5 60.5t35 68.5t60 65.5t88.5 53.5q10 4 10 10t-10 6q-4 0 -13 -4q-61 -25 -105 -59.5t-71.5 -75.5t-40 -84t-12.5 -80z M496 1153q0 -63 42 -103t101 -40t96 31.5t37 84.5q0 51 -32.5 79t-82.5 28q-33 0 -59.5 -18.5t-30.5 -53.5q0 -18 -6 -18q-18 0 -18 49q0 27 11 60.5t34.5 68.5t60.5 65.5t88 53.5q10 4 11 10q0 6 -11 6q-4 0 -12 -4q-61 -25 -105.5 -59.5t-72 -75.5t-39.5 -84t-12 -80z" />
<glyph unicode="&#x201d;" horiz-adv-x="927" d="M162 1317q0 -51 32.5 -79t81.5 -28q33 0 59.5 18.5t31.5 53.5q0 18 6 18q18 0 18 -49q0 -27 -11 -60.5t-34.5 -68.5t-60.5 -66.5t-88 -51.5q-10 -6 -11 -11q0 -6 11 -6q4 0 12 4q61 25 104 59.5t71 75.5t41 84t13 80q0 63 -42 103.5t-101 40.5t-96 -32t-37 -85zM530 1317 q0 -51 33 -79t82 -28q33 0 59.5 18.5t30.5 53.5q0 18 6 18q18 0 19 -49q0 -27 -11.5 -60.5t-35 -68.5t-60.5 -66.5t-88 -51.5q-10 -6 -10 -11q0 -6 10 -6q4 0 13 4q61 25 104 59.5t70.5 75.5t41 84t13.5 80q0 63 -42 103.5t-101 40.5t-96.5 -32t-37.5 -85z" />
<glyph unicode="&#x201e;" horiz-adv-x="927" d="M166 215q0 -51 32.5 -78.5t82.5 -27.5q33 0 59.5 18t30.5 53q0 18 6 19q18 0 18 -49q0 -27 -11 -61t-34.5 -68.5t-60.5 -66.5t-88 -52q-10 -6 -11 -11q0 -6 11 -6q4 0 12 4q61 25 104 60t71 76t41 83.5t13 79.5q0 63 -42 103.5t-101 40.5t-96 -32t-37 -85zM535 215 q0 -51 32.5 -78.5t81.5 -27.5q33 0 59.5 18t30.5 53q0 18 6 19q18 0 19 -49q0 -27 -11.5 -61t-35 -68.5t-60 -66.5t-88.5 -52q-10 -6 -10 -11q0 -6 10 -6q4 0 13 4q61 25 104 60t70.5 76t41 83.5t13.5 79.5q0 63 -42 103.5t-101 40.5t-96 -32t-37 -85z" />
<glyph unicode="&#x2022;" horiz-adv-x="935" d="M133 483q0 -68 26.5 -128t71.5 -105t105.5 -71.5t128.5 -26.5t128 26.5t105 71.5t72 105t27 128t-27 128.5t-72 105.5t-105.5 71.5t-127.5 26.5q-68 0 -128.5 -26.5t-105.5 -71.5t-71.5 -105.5t-26.5 -128.5z" />
<glyph unicode="&#x2026;" horiz-adv-x="1644" d="M227 102q0 -47 32 -78.5t79 -31.5t79 31.5t32 78.5t-32 79t-79 32t-79 -31.5t-32 -79.5zM715 102q0 -47 31.5 -78.5t78.5 -31.5t79 31.5t32 78.5t-32 79t-79 32t-78.5 -31.5t-31.5 -79.5zM1202 102q0 -47 32 -78.5t79 -31.5t78.5 31.5t31.5 78.5t-31.5 79t-78.5 32 t-79 -31.5t-32 -79.5z" />
<glyph unicode="&#x202f;" horiz-adv-x="357" />
<glyph unicode="&#x2039;" horiz-adv-x="538" d="M72 551l346 -320h37l-250 320l250 319h-37z" />
<glyph unicode="&#x203a;" horiz-adv-x="538" d="M88 231h35l346 320l-346 319h-35l250 -319z" />
<glyph unicode="&#x205f;" horiz-adv-x="447" />
<glyph unicode="&#x2122;" horiz-adv-x="1013" d="M80 1294h16q8 63 68 64h53v-352h-53v-17h176v17h-57v352h53q59 0 67 -64h17l-6 82h-326zM481 989h135v17h-57v305l121 -322h12l111 344v-327h-55v-17h172v17h-54v352h54v18h-121l-97 -293l-110 293h-111v-18h58v-352h-58v-17z" />
<glyph unicode="&#xe000;" horiz-adv-x="798" d="M0 0v799h799v-799h-799z" />
</font>
</defs>
</svg>
